<?xml version="1.0" encoding="UTF-8"?>
<svg width="18px" height="18px" viewBox="0 0 18 18" version="1.1" xmlns="http://www.w3.org/2000/svg" xmlns:xlink="http://www.w3.org/1999/xlink">
    <!-- Generator: Sketch 51.3 (57544) - http://www.bohemiancoding.com/sketch -->
    <title>noun_1515223_cc</title>
    <desc>Created with Sketch.</desc>
    <defs></defs>
    <g id="Page-1" stroke="none" stroke-width="1" fill="none" fill-rule="evenodd">
        <g id="main" transform="translate(-1380.000000, -111.000000)" fill="#FFFFFF" fill-rule="nonzero">
            <g id="noun_1515223_cc" transform="translate(1380.000000, 111.000000)">
                <path d="M6.04956522,15.7656522 C7.47783059,17.200972 9.42079296,18.0054909 11.4456522,18 C13.8457943,17.993273 16.1045332,16.8639036 17.55,14.9478261 L17.8434783,14.5565217 C18.0421841,14.2906783 18.0515937,13.9284091 17.8669565,13.6526087 C16.7531651,11.9793808 15.0549495,10.7821178 13.1047826,10.2952174 L12.7134783,10.1973913 C12.4464259,10.1310033 12.1641295,10.2097491 11.97,10.4047826 L10.9252174,11.4456522 C10.5056132,11.8491537 9.84221287,11.8491537 9.4226087,11.4456522 L6.55434783,8.5773913 C6.14042876,8.16203751 6.14042876,7.4901364 6.55434783,7.07478261 L7.59521739,6.03 C7.7888878,5.83668808 7.86752615,5.55626076 7.8026087,5.29043478 L7.70478261,4.89913043 C7.21788216,2.94896357 6.0206192,1.25074792 4.3473913,0.136956522 C4.07159091,-0.0476806324 3.70932169,-0.0382710424 3.44347826,0.160434783 L3.05217391,0.453913043 C1.13719048,1.89854864 0.00794919078,4.15558349 2.70984285e-13,6.55434783 C-0.00549086498,8.57920704 0.799028002,10.5221694 2.23434783,11.9504348 L6.04956522,15.7656522 Z M3.91304348,1.75695652 C5.02647144,2.6394784 5.81963498,3.86290223 6.17086957,5.23956522 L5.43913043,5.9673913 C4.41313799,6.99414287 4.41313799,8.65803104 5.43913043,9.68478261 L8.3073913,12.5530435 C9.34686126,13.5478407 10.9853126,13.5478407 12.0247826,12.5530435 L12.7526087,11.8252174 C14.1334743,12.1740343 15.3604899,12.9691183 16.2430435,14.0869565 C15.0900645,15.5656852 13.3207492,16.4315817 11.4456522,16.4347826 C9.8307044,16.4437143 8.27984049,15.8036305 7.14130435,14.6582609 L3.32608696,10.8430435 C2.18071735,9.70450734 1.54063351,8.15364342 1.54956522,6.53869565 C1.56133031,4.66641961 2.43275047,2.90338079 3.91304348,1.75695652 L3.91304348,1.75695652 Z" id="Shape"></path>
                <path d="M13.3043478,8.60869565 C13.7365707,8.60869565 14.0869565,8.2583098 14.0869565,7.82608696 L14.0869565,7.51304348 C14.0847999,5.52571237 12.4742876,3.91520011 10.4869565,3.91304348 L10.173913,3.91304348 C9.7416902,3.91304348 9.39130435,4.26342933 9.39130435,4.69565217 C9.39130435,5.12787502 9.7416902,5.47826087 10.173913,5.47826087 L10.4869565,5.47826087 C11.6107359,5.47826087 12.5217391,6.38926407 12.5217391,7.51304348 L12.5217391,7.82608696 C12.5217391,8.2583098 12.872125,8.60869565 13.3043478,8.60869565 Z" id="Shape"></path>
                <path d="M17.2173913,9.39130435 C17.6496142,9.39130435 18,9.0409185 18,8.60869565 L18,8.2173913 C18,3.6790514 14.3209486,0 9.7826087,0 L9.39130435,0 C8.9590815,0 8.60869565,0.350385848 8.60869565,0.782608696 C8.60869565,1.21483154 8.9590815,1.56521739 9.39130435,1.56521739 L9.7826087,1.56521739 C13.4565029,1.56521739 16.4347826,4.5434971 16.4347826,8.2173913 L16.4347826,8.60869565 C16.4347826,8.81625638 16.5172358,9.01531597 16.6640034,9.16208357 C16.810771,9.30885117 17.0098306,9.39130435 17.2173913,9.39130435 Z" id="Shape"></path>
            </g>
        </g>
    </g>
</svg>