<?xml version="1.0" encoding="UTF-8"?>
<svg width="681px" height="618px" viewBox="0 0 681 618" version="1.1" xmlns="http://www.w3.org/2000/svg" xmlns:xlink="http://www.w3.org/1999/xlink">
    <!-- Generator: Sketch 51.3 (57544) - http://www.bohemiancoding.com/sketch -->
    <title>Page 1</title>
    <desc>Created with Sketch.</desc>
    <defs></defs>
    <g id="Page-1" stroke="none" stroke-width="1" fill="none" fill-rule="evenodd" opacity="0.6">
        <g id="main" transform="translate(-759.000000, -2057.000000)">
            <g id="Page-1" transform="translate(759.000000, 2057.000000)">
                <g id="Group-5" transform="translate(347.000000, 0.500000)" stroke="#B9B9B9" stroke-linecap="round" stroke-linejoin="round">
                    <polyline id="Stroke-1" points="0.3348 541.5 0.3348 154.5 11.0848 135.75 16.3348 135.75 24.6678 112.167 29.0018 112.167 32.3348 107.5 32.3348 95.167 48.6678 64.833 55.0018 67.833 55.0018 71.5 76.3348 88.833 136.3348 0 206.3348 55 206.3348 84 217.3348 93.5 224.3348 86 236.8348 99.5 236.8348 117.5 245.8348 126 256.3348 116.5 299.0018 168.5 299.0018 503.081"></polyline>
                    <polyline id="Stroke-3" points="151.8348 592.5 151.8348 522 333.8348 501"></polyline>
                </g>
                <path d="M373.0018,546.5957 L373.0018,607.6667" id="Stroke-6" stroke="#B9B9B9" stroke-linecap="round" stroke-linejoin="round"></path>
                <polyline id="Stroke-7" stroke="#B9B9B9" stroke-linecap="round" stroke-linejoin="round" points="400.6678 607.667 400.6678 535 380.6678 532 373.0018 535"></polyline>
                <g id="Group-846" transform="translate(0.000000, 0.500000)">
                    <path d="M278.8514,553.6533 C283.9484,553.1173 291.0284,552.5123 296.0014,551.8333 C357.0014,543.5003 373.0014,534.5003 373.0014,534.5003" id="Stroke-8" stroke="#B9B9B9" stroke-linecap="round" stroke-linejoin="round"></path>
                    <path d="M229.5936,557.0977 C241.2146,556.6357 257.1286,555.8517 271.3536,554.5767" id="Stroke-10" stroke="#B9B9B9" stroke-linecap="round" stroke-linejoin="round"></path>
                    <path d="M172.6678,557.167 C177.2618,557.167 195.7278,558.078 221.5928,557.501" id="Stroke-12" stroke="#B9B9B9" stroke-linecap="round" stroke-linejoin="round"></path>
                    <path d="M216.1708,565.1621 C187.0308,565.6571 172.6678,565.5001 172.6678,565.5001" id="Stroke-14" stroke="#B9B9B9" stroke-linecap="round" stroke-linejoin="round"></path>
                    <path d="M264.5018,564.1133 C253.5758,564.4843 239.1268,564.7593 229.5858,564.9633" id="Stroke-16" stroke="#B9B9B9" stroke-linecap="round" stroke-linejoin="round"></path>
                    <path d="M272.3553,563.7256 C271.4663,563.7776 271.5803,563.8256 270.6963,563.8686" id="Stroke-18" stroke="#B9B9B9" stroke-linecap="round" stroke-linejoin="round"></path>
                    <path d="M301.3524,560.5273 C294.0674,561.5513 286.6534,562.4293 279.3344,563.0673" id="Stroke-20" stroke="#B9B9B9" stroke-linecap="round" stroke-linejoin="round"></path>
                    <path d="M336.4774,554.4668 C328.0574,556.1608 318.6874,557.8868 308.9344,559.4038" id="Stroke-22" stroke="#B9B9B9" stroke-linecap="round" stroke-linejoin="round"></path>
                    <path d="M373.0018,546.0957 C373.0018,546.0957 361.3858,549.2127 344.2508,552.8577" id="Stroke-24" stroke="#B9B9B9" stroke-linecap="round" stroke-linejoin="round"></path>
                    <polyline id="Stroke-26" stroke="#B9B9B9" stroke-linecap="round" stroke-linejoin="round" points="413.9911 607.167 414.1581 97.401 417.3351 88.834 421.6681 94.167 423.3351 88.834"></polyline>
                    <path d="M553.3348,84 L553.3348,515.187" id="Stroke-28" stroke="#B9B9B9" stroke-linecap="round" stroke-linejoin="round"></path>
                    <path d="M592.8348,126 L592.8348,510.25" id="Stroke-30" stroke="#B9B9B9" stroke-linecap="round" stroke-linejoin="round"></path>
                    <path d="M603.3348,116.5 L603.3348,508.937" id="Stroke-32" stroke="#B9B9B9" stroke-linecap="round" stroke-linejoin="round"></path>
                    <polyline id="Stroke-34" stroke="#B9B9B9" stroke-linecap="round" stroke-linejoin="round" points="376.0018 112.1665 380.6678 531.4995 380.6678 607.1665"></polyline>
                    <path d="M358.0848,135.75 L358.0848,539.839" id="Stroke-36" stroke="#B9B9B9" stroke-linecap="round" stroke-linejoin="round"></path>
                    <polyline id="Stroke-38" stroke="#B9B9B9" stroke-linecap="round" stroke-linejoin="round" points="125.3348 280 112.3348 289 112.3348 561.5"></polyline>
                    <polyline id="Stroke-40" stroke="#B9B9B9" stroke-linecap="round" stroke-linejoin="round" points="169.3348 227 198.8768 255.824 228.0018 283.5 228.3208 516.664"></polyline>
                    <polyline id="Stroke-42" stroke="#B9B9B9" stroke-linecap="round" stroke-linejoin="round" points="199.8768 256.8237 200.0018 248.8337 167.6678 215.2497 167.6678 210.7497 162.5848 206.4997 151.5848 214.7497 153.8348 592.9997"></polyline>
                    <polyline id="Stroke-44" stroke="#B9B9B9" stroke-linecap="round" stroke-linejoin="round" points="151.5848 222.3335 148.0018 225.3335 148.0018 220.1665 141.3348 224.0005 141.3348 230.6665 136.6678 234.3335 136.6678 228.8335 125.3348 237.8335 125.3348 580.0005"></polyline>
                    <path d="M166.1678,557.167 L169.1678,216.917" id="Stroke-46" stroke="#B9B9B9" stroke-linecap="round" stroke-linejoin="round"></path>
                    <polyline id="Stroke-48" stroke="#B9B9B9" stroke-linecap="round" stroke-linejoin="round" points="172.6678 557.167 162.3348 557.167 162.3348 607.167"></polyline>
                    <path d="M172.6678,607.167 L172.6678,565.5" id="Stroke-50" stroke="#B9B9B9" stroke-linecap="round" stroke-linejoin="round"></path>
                    <polyline id="Stroke-52" stroke="#B9B9B9" stroke-linecap="round" stroke-linejoin="round" points="228.3212 302.5 237.8352 310 234.0782 313 234.3972 503.77"></polyline>
                    <polyline id="Stroke-54" stroke="#B9B9B9" stroke-linecap="round" stroke-linejoin="round" points="234.078 319.5 244.335 313 259.335 328 263.835 325.5 290.335 357.5 291.002 533.812"></polyline>
                    <path d="M263.7059,503 L263.8349,325.5" id="Stroke-56" stroke="#B9B9B9" stroke-linecap="round" stroke-linejoin="round"></path>
                    <path d="M565.3348,513.9375 L564.3348,93.5005" id="Stroke-58" stroke="#B9B9B9" stroke-linecap="round" stroke-linejoin="round"></path>
                    <path d="M0.102539062,564.379883 C25.6953125,564.379883 76.3242187,562.939941 125.3349,561.5" id="Stroke-60" stroke="#B9B9B9" stroke-linecap="round" stroke-linejoin="round"></path>
                    <path d="M483.3348,0 L482.3348,607.167" id="Stroke-62" stroke="#B9B9B9" stroke-linecap="round" stroke-linejoin="round"></path>
                    <path d="M421.6678,94.1665 L421.6678,607.1665" id="Stroke-64" stroke="#B9B9B9" stroke-linecap="round" stroke-linejoin="round"></path>
                    <path d="M402.0018,71.5 L400.6678,534.5" id="Stroke-66" stroke="#B9B9B9" stroke-linecap="round" stroke-linejoin="round"></path>
                    <path d="M336.5399,554.7754 L336.5399,607.1674" id="Stroke-68" stroke="#B9B9B9" stroke-linecap="round" stroke-linejoin="round"></path>
                    <path d="M344.3163,553.1621 L344.3163,607.1671" id="Stroke-70" stroke="#B9B9B9" stroke-linecap="round" stroke-linejoin="round"></path>
                    <path d="M216.0848,565.5234 L216.0848,607.1674" id="Stroke-72" stroke="#B9B9B9" stroke-linecap="round" stroke-linejoin="round"></path>
                    <path d="M224.0848,572.875 L224.0848,607.167" id="Stroke-74" stroke="#B9B9B9" stroke-linecap="round" stroke-linejoin="round"></path>
                    <path d="M270.5848,564.1084 C270.8348,565.0004 270.5848,607.1674 270.5848,607.1674" id="Stroke-76" stroke="#B9B9B9" stroke-linecap="round" stroke-linejoin="round"></path>
                    <path d="M276.0018,529.167 C276.0018,529.167 267.2998,529.781 242.0018,532.833 C218.9278,535.617 211.0018,536.583 211.0018,536.583 L211.0018,541.5 C211.0018,541.5 225.6678,539.292 245.3348,537.188 C263.7358,535.218 276.7518,533.813 276.7518,533.813" id="Stroke-78" stroke="#B9B9B9" stroke-linecap="round" stroke-linejoin="round"></path>
                    <path d="M276.0018,533.833 C276.0018,533.833 282.0018,533.5 285.6678,535.5 C289.3348,537.5 306.0018,550.167 306.0018,550.167" id="Stroke-80" stroke="#B9B9B9" stroke-linecap="round" stroke-linejoin="round"></path>
                    <path d="M276.0018,529.167 C276.0018,529.167 282.6678,528.167 287.0678,531.051 C290.8338,533.519 311.6728,549.531 311.6728,549.531" id="Stroke-82" stroke="#B9B9B9" stroke-linecap="round" stroke-linejoin="round"></path>
                    <path d="M223.6835,518.0791 L224.0845,531.3331 C224.0845,531.3331 237.3555,528.7831 249.6675,527.5001 C267.0155,525.6921 275.0015,525.6671 275.0015,525.6671 L275.0015,509.7501 C269.3975,510.0001 257.7875,511.6701 249.0015,512.9171 C234.0785,515.0341 223.6835,518.0791 223.6835,518.0791 Z" id="Stroke-84" stroke="#B9B9B9" stroke-linecap="round" stroke-linejoin="round"></path>
                    <path d="M224.4286,531.5625 L225.3346,534.5005" id="Stroke-86" stroke="#B9B9B9" stroke-linecap="round" stroke-linejoin="round"></path>
                    <path d="M226.6678,531.333 L227.2768,534.225" id="Stroke-88" stroke="#B9B9B9" stroke-linecap="round" stroke-linejoin="round"></path>
                    <path d="M274.6678,525.8437 L274.3348,528.9987" id="Stroke-90" stroke="#B9B9B9" stroke-linecap="round" stroke-linejoin="round"></path>
                    <path d="M271.9843,526.125 L271.9843,528.999" id="Stroke-92" stroke="#B9B9B9" stroke-linecap="round" stroke-linejoin="round"></path>
                    <path d="M263.7059,503 C263.7059,506.728 257.8129,511.678 249.0019,512.917 C240.3709,514.13 234.0779,509.895 234.0779,506.167 C234.0779,501.083 238.9929,495.865 247.5169,494.488 C257.7519,492.833 263.7059,498.145 263.7059,503 Z" id="Stroke-94" stroke="#B9B9B9" stroke-linecap="round" stroke-linejoin="round"></path>
                    <path d="M270.9843,541.2344 L275.7523,617.5004" id="Stroke-96" stroke="#B9B9B9" stroke-linecap="round" stroke-linejoin="round"></path>
                    <path d="M278.3651,542.2344 L280.3651,616.5004" id="Stroke-98" stroke="#B9B9B9" stroke-linecap="round" stroke-linejoin="round"></path>
                    <path d="M228.3212,617.5 L221.5852,543.667" id="Stroke-100" stroke="#B9B9B9" stroke-linecap="round" stroke-linejoin="round"></path>
                    <path d="M228.5848,543.8389 L232.2108,616.4999" id="Stroke-102" stroke="#B9B9B9" stroke-linecap="round" stroke-linejoin="round"></path>
                    <path d="M301.3348,560.5 L301.3348,607.167" id="Stroke-104" stroke="#B9B9B9" stroke-linecap="round" stroke-linejoin="round"></path>
                    <path d="M308.9344,559.4033 L309.2704,607.1673" id="Stroke-106" stroke="#B9B9B9" stroke-linecap="round" stroke-linejoin="round"></path>
                    <polyline id="Stroke-108" stroke="#B9B9B9" stroke-linecap="round" stroke-linejoin="round" points="508.3348 589.6377 508.3348 535.4997 558.8348 530.8127 558.8348 573.9997"></polyline>
                    <polyline id="Stroke-110" stroke="#B9B9B9" stroke-linecap="round" stroke-linejoin="round" points="571.3348 571.2979 571.3348 530.4999 625.8348 523.4999"></polyline>
                    <path d="M237.8993,501.1748 C237.3713,501.1288 236.9383,500.7608 236.6193,500.3688 C236.7743,500.2048 236.9313,500.0428 237.0953,499.8818 C237.3643,500.2168 237.7043,500.5128 238.0753,500.5438 C238.3343,500.5678 238.5903,500.4568 238.8593,500.2098 C239.6793,499.4488 239.8933,498.3888 239.9283,497.6298 C240.1303,497.4988 240.3343,497.3708 240.5413,497.2448 C240.5443,498.1298 240.3473,499.5798 239.1983,500.6438 C238.7763,501.0348 238.3383,501.2138 237.8993,501.1748 L237.8993,501.1748 Z M249.9603,497.7328 C249.6513,497.1638 249.6513,497.1638 249.5163,496.7638 C249.2783,496.0648 249.1043,495.2178 248.9973,494.2408 C249.2023,494.2128 249.4083,494.1848 249.6113,494.1658 C249.7983,495.7258 250.1273,496.6118 250.3213,497.0188 C250.6423,496.6018 251.2053,495.6928 251.6383,494.0588 C251.8353,494.0588 252.0313,494.0638 252.2223,494.0708 C251.5103,496.7688 250.4363,497.7208 250.3863,497.7628 C250.3153,497.8248 250.2273,497.8568 250.1483,497.8498 C250.0653,497.8458 249.9983,497.8018 249.9603,497.7328 L249.9603,497.7328 Z M248.8433,498.1118 C246.9003,497.6148 245.8753,495.6858 245.5673,495.0008 C245.7803,494.9368 245.9943,494.8748 246.2103,494.8148 C246.5373,495.4678 247.3203,496.7598 248.6083,497.3198 C248.5253,496.8288 248.3323,495.9408 247.8883,494.4238 C248.1013,494.3828 248.3123,494.3468 248.5223,494.3128 C249.2873,496.9538 249.2773,497.6748 249.2733,497.7528 C249.2673,497.8568 249.2133,497.9598 249.1253,498.0338 C249.0413,498.1058 248.9353,498.1348 248.8433,498.1118 L248.8433,498.1118 Z M248.9403,498.7908 C249.0643,498.8298 249.1283,498.9598 249.0933,499.1078 C248.8093,500.3218 248.3313,501.1208 247.6723,501.4778 C246.8133,501.9428 245.9753,501.4848 245.6553,501.2648 C244.9913,500.8128 243.8743,499.5238 243.8263,499.4688 C243.7633,499.3958 243.7493,499.2868 243.7883,499.1768 C244.1793,498.0848 244.0073,496.3318 243.9093,495.5788 C244.1063,495.5008 244.3053,495.4288 244.5063,495.3568 C244.6083,496.1158 244.7763,497.8538 244.4043,499.0988 C244.6853,499.4148 245.5433,500.3628 246.0543,500.7118 C246.2453,500.8418 246.9123,501.2428 247.4953,500.9268 C247.8953,500.7098 248.2213,500.1548 248.4463,499.3248 C247.7533,499.0538 245.5713,498.0028 244.6583,495.2998 C244.8603,495.2288 245.0663,495.1588 245.2743,495.0928 C246.2983,497.9338 248.9153,498.7818 248.9403,498.7908 L248.9403,498.7908 Z M240.0293,500.6148 C239.9153,500.5368 239.8943,500.3678 239.9823,500.2188 C240.5073,499.3208 240.7103,498.0118 240.7893,497.0948 C240.9943,496.9748 241.2023,496.8558 241.4123,496.7418 C241.3503,497.6478 241.1683,499.0898 240.6193,500.1948 L241.8953,501.0838 C242.2963,500.4338 243.2213,498.6288 243.2103,495.8688 C243.4063,495.7828 243.6053,495.7008 243.8053,495.6218 C243.8563,499.4538 242.2163,501.6008 242.1453,501.6918 C242.0323,501.8348 241.8473,501.8818 241.7273,501.7988 L240.0293,500.6148 Z M235.6863,503.6368 C235.2543,503.8868 234.7273,503.9018 234.2543,503.8378 C234.3443,503.6308 234.4453,503.4248 234.5513,503.2188 C234.7823,503.2428 235.0113,503.2448 235.2143,503.1988 C235.1623,502.9908 235.0963,502.6998 235.0413,502.3728 C235.2033,502.1188 235.3763,501.8668 235.5633,501.6168 C235.6453,502.4128 235.8773,503.2048 235.8783,503.2158 C235.9233,503.3648 235.8383,503.5498 235.6863,503.6368 L235.6863,503.6368 Z M262.4053,499.4358 C262.4413,499.6318 263.3473,499.9618 262.3803,500.2428 C261.3633,500.5398 260.9023,500.6438 259.8643,500.7348 C259.5133,500.7648 258.5963,500.7068 258.5963,500.7068 L257.9503,500.3498 C257.4243,500.9638 255.8793,502.6748 254.0963,503.7318 C252.7833,504.5098 251.4723,505.0958 250.5163,505.5248 C250.0193,505.7478 249.4653,505.9938 249.2453,506.1348 C249.1643,506.8438 248.8633,510.0268 249.6473,512.3038 C249.6643,512.3598 249.6803,512.4048 249.6973,512.4588 C249.4933,512.5268 249.2893,512.5928 249.0833,512.6538 C249.0793,512.6448 249.0773,512.6358 249.0723,512.6248 C248.1483,509.9318 248.6453,506.1878 248.6643,506.0288 C248.6733,505.9598 248.7083,505.8888 248.7583,505.8268 C248.9533,505.5968 249.3733,505.4038 250.3873,504.9478 C251.3293,504.5278 252.6163,503.9498 253.8943,503.1948 C255.9203,501.9928 257.6983,499.8008 257.7153,499.7788 C257.8233,499.6458 257.9923,499.5958 258.1113,499.6618 L258.9113,500.1038 C259.6253,500.1448 261.7733,499.9808 262.4053,499.4358 L262.4053,499.4358 Z M245.6343,508.8268 C245.7173,508.8638 245.7683,508.9468 245.7693,509.0498 C245.7693,509.0788 245.7783,509.7778 245.6413,511.8838 C245.6033,512.4868 245.5053,513.0038 245.3863,513.4418 C245.1813,513.4648 244.9783,513.4878 244.7773,513.5048 C244.8983,513.0928 245.0023,512.5838 245.0403,511.9788 C245.1383,510.4438 245.1623,509.6578 245.1663,509.3518 C244.7133,509.1328 243.2323,508.3738 242.2543,507.3588 C241.3953,506.4638 240.9203,505.0318 240.7233,504.3148 C240.1023,504.8638 238.7953,505.7838 237.2753,505.4858 C236.5803,505.3468 236.0913,504.8348 235.8993,504.5968 C235.5563,504.6648 234.7123,504.8198 233.8783,504.8758 C233.9383,504.6608 234.0143,504.4478 234.0933,504.2348 C235.0713,504.1538 236.0493,503.9478 236.0643,503.9458 C236.1683,503.9228 236.2633,503.9578 236.3163,504.0358 C236.3223,504.0428 236.7973,504.7218 237.5033,504.8628 C239.2323,505.2008 240.6543,503.6308 240.7123,503.5648 C240.7943,503.4728 240.9063,503.4238 241.0073,503.4378 C241.1103,503.4478 241.1863,503.5198 241.2083,503.6228 C241.2123,503.6448 241.6603,505.7568 242.7233,506.8618 C243.8043,507.9868 245.6163,508.8188 245.6343,508.8268 L245.6343,508.8268 Z M252.5333,498.5148 C252.5573,498.5878 253.1363,500.3058 252.1453,502.2368 C250.9813,504.5058 249.1583,504.7858 249.0813,504.7998 C248.9933,504.8108 248.9213,504.7598 248.8683,504.6988 C248.8173,504.6378 248.8053,504.5268 248.8253,504.4348 L249.4333,501.6088 C249.9793,500.0768 251.0963,498.5888 251.1433,498.5268 C251.2143,498.4308 251.3233,498.3708 251.4243,498.3698 L252.3083,498.3598 C252.4123,498.3598 252.4993,498.4178 252.5333,498.5148 L252.5333,498.5148 Z M251.6283,502.0378 C252.3163,500.6938 252.1073,499.4278 252.0043,498.9948 L251.4723,499.0028 C251.1843,499.4078 250.4013,500.5688 249.9953,501.7108 C249.6243,502.7538 249.4863,503.6328 249.4343,504.0888 C249.9293,503.9198 250.9153,503.4248 251.6283,502.0378 L251.6283,502.0378 Z M242.4823,501.8208 L243.3453,500.2258 C243.3983,500.1288 243.4853,500.0558 243.5843,500.0288 C243.6803,499.9998 243.7743,500.0228 243.8353,500.0858 L245.3783,501.7048 C245.4113,501.7388 245.4323,501.7828 245.4423,501.8338 L245.8693,504.3738 C245.8943,504.5208 245.8093,504.6848 245.6673,504.7658 C245.5243,504.8448 245.3723,504.8148 245.3043,504.6938 C244.6053,503.4478 242.5693,502.2238 242.5473,502.2118 C242.4283,502.1408 242.4003,501.9708 242.4823,501.8208 L242.4823,501.8208 Z M243.6293,500.8568 L243.1323,501.7748 C243.5183,502.0198 244.3583,502.5908 245.0503,503.2898 L244.8583,502.1468 L243.6293,500.8568 Z M241.8553,502.3688 C241.9233,502.3948 243.5313,503.0138 244.5343,504.2008 C245.5453,505.4008 245.8223,507.6178 245.8333,507.7108 C245.8463,507.8238 245.7953,507.9488 245.7003,508.0348 C245.6053,508.1218 245.4843,508.1538 245.3853,508.1178 C245.3213,508.0968 243.7973,507.5478 242.7583,506.2718 C241.8113,505.1058 241.4203,502.8828 241.4053,502.7878 C241.3853,502.6738 241.4343,502.5438 241.5323,502.4538 C241.6283,502.3648 241.7543,502.3308 241.8553,502.3688 L241.8553,502.3688 Z M243.2533,505.8028 C243.8363,506.5198 244.6023,506.9948 245.1173,507.2598 C244.9653,506.5348 244.6453,505.3818 244.0453,504.6738 C243.4853,504.0088 242.6953,503.5278 242.1543,503.2498 C242.3373,503.9828 242.6933,505.1168 243.2533,505.8028 L243.2533,505.8028 Z M238.4483,504.3938 C237.7843,504.5158 237.2423,504.3928 236.8393,504.0318 C236.1623,503.4208 235.8773,502.2958 235.7553,501.3688 C235.9183,501.1648 236.0853,500.9608 236.2613,500.7608 C237.4663,502.0348 239.1453,501.3028 239.2153,501.2718 C239.3123,501.2268 239.4133,501.2328 239.4863,501.2838 C240.1183,501.7388 240.7423,502.0458 240.7483,502.0498 C240.8143,502.0838 240.8603,502.1488 240.8733,502.2298 L240.9603,502.8048 C240.9753,502.9018 240.9413,503.0118 240.8673,503.0978 C240.6233,503.3858 239.5453,504.1928 238.4483,504.3938 L238.4483,504.3938 Z M239.1883,501.9068 C238.7633,502.0648 237.5623,502.4018 236.4613,501.7768 C236.6013,502.4458 236.8483,503.1208 237.2843,503.5148 C237.5753,503.7758 237.9743,503.8628 238.4733,503.7708 C239.2433,503.6298 240.0253,503.1128 240.3363,502.8498 L240.2953,502.5798 C240.1013,502.4798 239.6613,502.2388 239.1883,501.9068 L239.1883,501.9068 Z M251.8423,497.3788 C251.5823,497.2618 251.5003,496.9828 251.6363,496.6868 C251.8113,496.3128 252.2203,495.0748 252.5363,494.0888 C252.7323,494.0998 252.9233,494.1138 253.1163,494.1318 C252.8263,495.0388 252.4103,496.3088 252.1963,496.7958 C252.2503,496.8128 252.3683,496.8268 252.5703,496.7788 C252.9003,496.6988 253.9713,496.3128 255.3753,494.5318 C255.5643,494.5828 255.7513,494.6378 255.9313,494.6958 C254.0053,497.2188 252.3753,497.6218 251.8423,497.3788 L251.8423,497.3788 Z M253.2963,498.0568 C255.0173,496.6708 255.8903,495.5698 256.3343,494.8328 C256.5073,494.8978 256.6793,494.9658 256.8453,495.0368 C256.3493,495.8688 255.4273,497.0218 253.7533,498.3958 C253.7643,498.9758 253.7493,500.7788 253.1773,502.1648 C253.7753,502.0308 254.9163,501.5988 256.0343,500.1808 C256.8753,499.1138 256.7573,498.7998 256.5793,498.3238 C256.3153,497.6128 256.1883,496.8598 257.1683,495.1818 C257.1883,495.1908 257.2103,495.1998 257.2303,495.2088 C257.3783,495.2808 257.5233,495.3548 257.6633,495.4308 C256.7743,496.9588 256.9673,497.5038 257.1493,497.9908 C257.3933,498.6518 257.4903,499.2178 256.4643,500.5178 C254.6413,502.8288 252.7093,502.8588 252.6283,502.8568 C252.5323,502.8578 252.4523,502.8058 252.4123,502.7208 C252.3763,502.6328 252.3853,502.5238 252.4413,502.4258 C253.2633,500.9858 253.1443,498.4028 253.1443,498.3758 C253.1383,498.2608 253.1983,498.1368 253.2963,498.0568 L253.2963,498.0568 Z M258.5083,498.7608 C258.8483,498.3978 259.2993,497.7498 259.7333,497.0788 C259.8583,497.2268 259.9803,497.3768 260.0893,497.5328 C259.7633,498.0288 259.4323,498.5058 259.1393,498.8658 C259.3723,498.9768 260.8573,499.0618 261.7353,498.7368 C261.8043,498.9148 261.8613,499.0978 261.9123,499.2828 C260.0593,500.0018 258.4733,499.2198 258.4413,499.1738 C258.3683,499.0608 258.3953,498.8848 258.5083,498.7608 L258.5083,498.7608 Z M257.7133,498.4258 C257.6713,498.3918 257.2953,498.0708 257.3513,496.9888 C257.3803,496.4368 257.5403,495.9158 257.7333,495.4718 C257.9013,495.5658 258.0633,495.6658 258.2203,495.7678 C258.0863,496.1098 257.9763,496.4898 257.9543,496.8868 C257.9343,497.2708 257.9783,497.5178 258.0283,497.6708 C258.2883,497.4118 258.7073,496.9778 259.1393,496.4718 C259.2783,496.5948 259.4103,496.7228 259.5353,496.8538 C258.8103,497.6968 258.1443,498.3258 258.0953,498.3708 C257.9773,498.4818 257.8203,498.5038 257.7133,498.4258 L257.7133,498.4258 Z" id="Fill-112" fill="#B9B9B9"></path>
                    <polyline id="Stroke-114" stroke="#B9B9B9" stroke-linecap="round" stroke-linejoin="round" points="169.035 232.002 176.793 239.5 176.793 251.5 168.903 245.005"></polyline>
                    <polyline id="Stroke-116" stroke="#B9B9B9" stroke-linecap="round" stroke-linejoin="round" points="169.035 249.502 176.793 255 176.793 267 168.784 261.25"></polyline>
                    <polyline id="Stroke-118" stroke="#B9B9B9" stroke-linecap="round" stroke-linejoin="round" points="169.035 265 176.793 270.498 176.793 282.498 168.903 276.003"></polyline>
                    <polyline id="Stroke-120" stroke="#B9B9B9" stroke-linecap="round" stroke-linejoin="round" points="168.9032 281.0981 177.2252 286.9961 177.2252 299.9961 169.1682 293.9981"></polyline>
                    <polyline id="Stroke-122" stroke="#B9B9B9" stroke-linecap="round" stroke-linejoin="round" points="168.9032 298.5981 177.2252 304.4961 177.2252 317.4961 168.6002 311.4981"></polyline>
                    <polyline id="Stroke-124" stroke="#B9B9B9" stroke-linecap="round" stroke-linejoin="round" points="169.0546 315.5981 177.3766 321.4961 177.3766 333.4961 168.7516 327.4981"></polyline>
                    <polyline id="Stroke-126" stroke="#B9B9B9" stroke-linecap="round" stroke-linejoin="round" points="169.0546 331.1465 177.3766 337.0445 177.3766 349.3125 168.7516 344.0455"></polyline>
                    <polyline id="Stroke-128" stroke="#B9B9B9" stroke-linecap="round" stroke-linejoin="round" points="168.5282 348.001 176.8502 353 176.8502 366.167 168.2252 360.9"></polyline>
                    <polyline id="Stroke-130" stroke="#B9B9B9" stroke-linecap="round" stroke-linejoin="round" points="168.5282 364.1514 176.8502 369.1504 176.8502 382.3174 168.2252 377.0514"></polyline>
                    <polyline id="Stroke-132" stroke="#B9B9B9" stroke-linecap="round" stroke-linejoin="round" points="168.5282 380.5693 176.8502 385.5683 176.8502 398.7353 168.2252 393.4693"></polyline>
                    <polyline id="Stroke-134" stroke="#B9B9B9" stroke-linecap="round" stroke-linejoin="round" points="168.5282 397.5 176.8502 402.5 176.8502 414.375 168.2252 410.4"></polyline>
                    <polyline id="Stroke-136" stroke="#B9B9B9" stroke-linecap="round" stroke-linejoin="round" points="167.6678 414.0508 177.2928 418.6248 177.2928 430.7498 167.3128 426.3778"></polyline>
                    <polyline id="Stroke-138" stroke="#B9B9B9" stroke-linecap="round" stroke-linejoin="round" points="167.3124 430.7676 177.5284 434.8746 177.5284 446.9996 167.1764 442.7496"></polyline>
                    <polyline id="Stroke-140" stroke="#B9B9B9" stroke-linecap="round" stroke-linejoin="round" points="167.6678 448.4375 177.2928 452.2505 177.2928 463.3755 167.3128 459.7645"></polyline>
                    <polyline id="Stroke-142" stroke="#B9B9B9" stroke-linecap="round" stroke-linejoin="round" points="167.6678 463.375 177.2928 467.188 177.2928 478.313 167.3128 474.702"></polyline>
                    <polyline id="Stroke-144" stroke="#B9B9B9" stroke-linecap="round" stroke-linejoin="round" points="167.6678 480.875 177.2928 484.688 177.2928 495.813 167.3128 492.202"></polyline>
                    <polyline id="Stroke-146" stroke="#B9B9B9" stroke-linecap="round" stroke-linejoin="round" points="167.3124 496.8027 177.7504 500.9377 177.7504 512.0627 166.5884 508.7497"></polyline>
                    <polyline id="Stroke-148" stroke="#B9B9B9" stroke-linecap="round" stroke-linejoin="round" points="166.8925 513.9072 177.3305 517.0832 177.3305 528.2502 167.0015 526.5002"></polyline>
                    <polyline id="Stroke-150" stroke="#B9B9B9" stroke-linecap="round" stroke-linejoin="round" points="166.8925 530.8125 177.4285 532.8125 177.3585 545.0565 166.6475 543.4835"></polyline>
                    <polygon id="Stroke-152" stroke="#B9B9B9" stroke-linejoin="round" points="195.5018 264.5 183.5018 254.5 183.5018 248.502 195.5018 259.502"></polygon>
                    <polygon id="Stroke-154" stroke="#B9B9B9" stroke-linejoin="round" points="195.5018 281.5444 183.5018 271.5444 183.5018 259.5464 195.5018 270.5464"></polygon>
                    <polygon id="Stroke-156" stroke="#B9B9B9" stroke-linejoin="round" points="195.5018 297.8779 183.5018 287.8779 183.5018 275.8799 195.5018 286.8799"></polygon>
                    <polygon id="Stroke-158" stroke="#B9B9B9" stroke-linejoin="round" points="210.1493 293.9619 200.1493 285.9619 200.1493 273.9639 210.1493 282.9639"></polygon>
                    <polygon id="Stroke-160" stroke="#B9B9B9" stroke-linejoin="round" points="210.0018 309.9956 200.0018 301.9956 200.0018 289.9976 210.0018 298.9976"></polygon>
                    <polygon id="Stroke-162" stroke="#B9B9B9" stroke-linejoin="round" points="223.7968 305.2954 214.7968 298.2954 214.7968 288.2974 223.7968 296.2974"></polygon>
                    <polygon id="Stroke-164" stroke="#B9B9B9" stroke-linejoin="round" points="223.7968 319.499 214.7968 312.499 214.7968 302.501 223.7968 310.501"></polygon>
                    <polygon id="Stroke-166" stroke="#B9B9B9" stroke-linejoin="round" points="195.5018 312.561 183.5018 304.008 183.5018 292.547 195.5018 302.083"></polygon>
                    <polygon id="Stroke-168" stroke="#B9B9B9" stroke-linejoin="round" points="210.0018 324.1357 200.0018 316.4937 200.0018 306.0327 210.0018 313.6297"></polygon>
                    <polygon id="Stroke-170" stroke="#B9B9B9" stroke-linejoin="round" points="223.7968 333.2139 214.7968 326.5269 214.7968 316.9769 223.7968 324.6189"></polygon>
                    <polygon id="Stroke-172" stroke="#B9B9B9" stroke-linejoin="round" points="195.5018 328.0605 183.5018 319.5085 183.5018 308.0475 195.5018 317.5835"></polygon>
                    <polygon id="Stroke-174" stroke="#B9B9B9" stroke-linejoin="round" points="210.0018 339.6357 200.0018 331.9937 200.0018 321.5327 210.0018 329.1297"></polygon>
                    <polygon id="Stroke-176" stroke="#B9B9B9" stroke-linejoin="round" points="223.7968 348.7139 214.7968 342.0269 214.7968 332.4769 223.7968 340.1189"></polygon>
                    <polygon id="Stroke-178" stroke="#B9B9B9" stroke-linejoin="round" points="195.5018 343.0605 183.5018 334.5085 183.5018 323.0475 195.5018 332.5825"></polygon>
                    <polygon id="Stroke-180" stroke="#B9B9B9" stroke-linejoin="round" points="210.0018 354.6357 200.0018 346.9937 200.0018 336.5327 210.0018 344.1297"></polygon>
                    <polygon id="Stroke-182" stroke="#B9B9B9" stroke-linejoin="round" points="223.7968 363.7139 214.7968 357.0269 214.7968 347.4769 223.7968 355.1189"></polygon>
                    <polygon id="Stroke-184" stroke="#B9B9B9" stroke-linejoin="round" points="195.5018 359.6494 183.5018 351.0964 183.5018 339.6354 195.5018 349.1714"></polygon>
                    <polygon id="Stroke-186" stroke="#B9B9B9" stroke-linejoin="round" points="210.0018 370.2246 200.0018 362.5826 200.0018 352.1206 210.0018 359.7186"></polygon>
                    <polygon id="Stroke-188" stroke="#B9B9B9" stroke-linejoin="round" points="223.7968 379.3027 214.7968 372.6157 214.7968 363.0657 223.7968 370.7067"></polygon>
                    <polygon id="Stroke-190" stroke="#B9B9B9" stroke-linejoin="round" points="195.5018 376.3164 183.5018 367.7634 183.5018 356.3024 195.5018 364.8384"></polygon>
                    <polygon id="Stroke-192" stroke="#B9B9B9" stroke-linejoin="round" points="210.0018 384.8916 200.0018 378.2486 200.0018 368.7876 210.0018 375.3856"></polygon>
                    <polygon id="Stroke-194" stroke="#B9B9B9" stroke-linejoin="round" points="223.7968 393.9697 214.7968 387.2827 214.7968 377.7327 223.7968 384.3737"></polygon>
                    <polygon id="Stroke-196" stroke="#B9B9B9" stroke-linejoin="round" points="195.0848 391.8457 183.0848 383.2927 183.0848 371.8317 195.0848 380.3677"></polygon>
                    <polygon id="Stroke-198" stroke="#B9B9B9" stroke-linejoin="round" points="209.5848 399.4209 199.5848 392.7779 199.5848 383.3169 209.5848 389.9149"></polygon>
                    <polygon id="Stroke-200" stroke="#B9B9B9" stroke-linejoin="round" points="224.3807 408.499 215.3807 401.812 215.3807 392.262 224.3807 398.903"></polygon>
                    <polygon id="Stroke-202" stroke="#B9B9B9" stroke-linejoin="round" points="195.0848 407.2637 183.0848 399.7107 183.0848 388.2497 195.0848 395.7857"></polygon>
                    <polygon id="Stroke-204" stroke="#B9B9B9" stroke-linejoin="round" points="209.5848 414.8389 199.5848 408.1959 199.5848 398.7349 209.5848 405.3329"></polygon>
                    <polygon id="Stroke-206" stroke="#B9B9B9" stroke-linejoin="round" points="224.3807 422.917 215.3807 417.23 215.3807 407.68 224.3807 413.321"></polygon>
                    <polygon id="Stroke-208" stroke="#B9B9B9" stroke-linejoin="round" points="195.0848 422.4297 183.0848 415.8777 183.0848 404.4167 195.0848 411.9517"></polygon>
                    <polygon id="Stroke-210" stroke="#B9B9B9" stroke-linejoin="round" points="209.5848 430.0049 199.5848 424.3629 199.5848 413.9019 209.5848 420.4989"></polygon>
                    <polygon id="Stroke-212" stroke="#B9B9B9" stroke-linejoin="round" points="224.3807 437.083 215.3807 432.396 215.3807 422.846 224.3807 428.488"></polygon>
                    <polygon id="Stroke-214" stroke="#B9B9B9" stroke-linejoin="round" points="195.0848 438.6807 183.0848 432.1277 183.0848 420.6667 195.0848 427.2027"></polygon>
                    <polygon id="Stroke-216" stroke="#B9B9B9" stroke-linejoin="round" points="209.5848 445.2559 199.5848 439.6139 199.5848 429.1529 209.5848 434.7499"></polygon>
                    <polygon id="Stroke-218" stroke="#B9B9B9" stroke-linejoin="round" points="224.3807 451.334 215.3807 446.647 215.3807 437.097 224.3807 441.738"></polygon>
                    <polygon id="Stroke-220" stroke="#B9B9B9" stroke-linejoin="round" points="195.0848 454.0137 183.0848 448.4617 183.0848 436.0007 195.0848 442.5357"></polygon>
                    <polygon id="Stroke-222" stroke="#B9B9B9" stroke-linejoin="round" points="209.5848 459.5889 199.5848 454.9469 199.5848 444.4859 209.5848 449.0829"></polygon>
                    <polygon id="Stroke-224" stroke="#B9B9B9" stroke-linejoin="round" points="224.3807 466.667 215.3807 461.98 215.3807 452.43 224.3807 456.072"></polygon>
                    <polygon id="Stroke-226" stroke="#B9B9B9" stroke-linejoin="round" points="195.0848 470.3477 183.0848 464.7947 183.0848 453.3337 195.0848 458.8697"></polygon>
                    <polygon id="Stroke-228" stroke="#B9B9B9" stroke-linejoin="round" points="209.5848 474.9229 199.5848 471.2799 199.5848 460.8189 209.5848 464.4169"></polygon>
                    <polygon id="Stroke-230" stroke="#B9B9B9" stroke-linejoin="round" points="224.3807 480.001 215.3807 476.314 215.3807 466.764 224.3807 470.405"></polygon>
                    <polygon id="Stroke-232" stroke="#B9B9B9" stroke-linejoin="round" points="195.0848 485.5625 183.0848 480.0095 183.0848 468.5485 195.0848 474.0845"></polygon>
                    <polygon id="Stroke-234" stroke="#B9B9B9" stroke-linejoin="round" points="209.5848 490.1377 199.5848 486.4947 199.5848 476.0337 209.5848 479.6317"></polygon>
                    <polygon id="Stroke-236" stroke="#B9B9B9" stroke-linejoin="round" points="224.3807 495.2158 215.3807 491.5278 215.3807 481.9788 224.3807 485.6198"></polygon>
                    <polygon id="Stroke-238" stroke="#B9B9B9" stroke-linejoin="round" points="194.9374 501.5752 182.9374 497.0232 182.9374 485.5622 194.9374 490.0972"></polygon>
                    <polygon id="Stroke-240" stroke="#B9B9B9" stroke-linejoin="round" points="210.4374 505.1504 200.4374 502.5084 200.4374 492.0474 210.4374 494.6444"></polygon>
                    <polygon id="Stroke-242" stroke="#B9B9B9" stroke-linejoin="round" points="210.5848 519.6797 200.5848 517.0377 200.5848 506.5767 210.5848 509.1737"></polygon>
                    <polygon id="Stroke-244" stroke="#B9B9B9" stroke-linejoin="round" points="210.8348 534.917 200.4378 532.908 200.4378 522.447 210.8348 524.681"></polygon>
                    <polygon id="Stroke-246" stroke="#B9B9B9" stroke-linejoin="round" points="211.0018 549.9453 200.0018 548.3033 200.0018 537.0213 211.0018 538.6193"></polygon>
                    <polygon id="Stroke-248" stroke="#B9B9B9" stroke-linejoin="round" points="224.2323 509.2285 215.2323 506.5415 214.9853 499.5345 223.9853 502.1755"></polygon>
                    <polygon id="Stroke-250" stroke="#B9B9B9" stroke-linejoin="round" points="194.9374 515.3086 182.9374 512.7556 182.9374 501.2946 194.9374 505.8306"></polygon>
                    <polygon id="Stroke-252" stroke="#B9B9B9" stroke-linejoin="round" points="195.0848 531.6875 183.0848 529.1345 183.0848 517.6735 195.0848 520.2095"></polygon>
                    <polygon id="Stroke-254" stroke="#B9B9B9" stroke-linejoin="round" points="195.0848 547.9199 183.0848 545.3679 183.0848 533.9059 195.0848 536.4419"></polygon>
                    <polyline id="Stroke-256" stroke="#B9B9B9" stroke-linejoin="round" points="223.5438 521.6455 215.2318 520.2755 215.2318 510.7245 224.2318 512.3665 224.2318 518.3425"></polyline>
                    <polygon id="Stroke-258" stroke="#B9B9B9" stroke-linejoin="round" points="210.0018 278.2573 200.0018 269.2573 200.0018 263.2593 210.0018 273.2593"></polygon>
                    <polygon id="Stroke-260" stroke="#B9B9B9" stroke-linejoin="round" points="224.7968 292.4619 214.7968 283.4619 214.7968 277.4639 224.7968 287.4639"></polygon>
                    <polyline id="Stroke-262" stroke="#B9B9B9" stroke-linejoin="round" points="183.0848 556.9619 183.0848 549.3329 195.0848 551.6249 195.0848 557.4999"></polyline>
                    <path d="M215.6678,535.833 C215.5848,535.917 215.6678,525.104 215.6678,525.104 L223.6838,526.25" id="Stroke-264" stroke="#B9B9B9" stroke-linejoin="round"></path>
                    <polyline id="Stroke-266" stroke="#B9B9B9" stroke-linejoin="round" points="200.0018 557.0977 200.0018 552.0827 211.2518 553.8127 211.2518 557.1667"></polyline>
                    <polyline id="Stroke-268" stroke="#B9B9B9" stroke-linejoin="round" points="215.078 541.9131 215.078 550.7501 221.92 551.4171"></polyline>
                    <polyline id="Stroke-270" stroke="#B9B9B9" stroke-linejoin="round" points="215.078 557.0977 215.078 554.5767 221.92 554.9997"></polyline>
                    <path d="M211.5848,541.5 C211.5848,541.5 214.7618,541.22 220.9348,543.483" id="Stroke-272" stroke="#B9B9B9" stroke-linecap="round" stroke-linejoin="round"></path>
                    <path d="M162.5848,206.5 L162.3348,557.167" id="Stroke-274" stroke="#B9B9B9" stroke-linecap="round" stroke-linejoin="round"></path>
                    <polyline id="Stroke-276" stroke="#B9B9B9" stroke-linecap="round" stroke-linejoin="round" points="166.5887 547.665 177.4287 548.625 177.3307 557.098"></polyline>
                    <polyline id="Stroke-278" stroke="#B9B9B9" stroke-linecap="round" stroke-linejoin="round" points="248.5165 494.4883 248.5165 485.0003 260.2785 489.6823 260.2785 496.1933"></polyline>
                    <polygon id="Stroke-280" stroke="#B9B9B9" stroke-linecap="round" stroke-linejoin="round" points="248.5165 471.167 248.5165 480.333 259.0105 486.167 259.0105 477.333"></polygon>
                    <polygon id="Stroke-282" stroke="#B9B9B9" stroke-linecap="round" stroke-linejoin="round" points="248.5165 458.2637 248.5165 467.4297 259.0105 473.2637 259.0105 464.4297"></polygon>
                    <polygon id="Stroke-284" stroke="#B9B9B9" stroke-linecap="round" stroke-linejoin="round" points="248.5165 446.0996 248.5165 455.2656 259.0105 461.0996 259.0105 452.2656"></polygon>
                    <polygon id="Stroke-286" stroke="#B9B9B9" stroke-linecap="round" stroke-linejoin="round" points="248.5165 433.4766 248.5165 442.6436 259.0105 448.4766 259.0105 439.6436"></polygon>
                    <polygon id="Stroke-288" stroke="#B9B9B9" stroke-linecap="round" stroke-linejoin="round" points="248.5165 420.6533 248.5165 429.8193 259.0105 435.6533 259.0105 426.8193"></polygon>
                    <polygon id="Stroke-290" stroke="#B9B9B9" stroke-linecap="round" stroke-linejoin="round" points="248.5165 408.25 248.5165 417.417 259.0105 423.25 259.0105 414.417"></polygon>
                    <polygon id="Stroke-292" stroke="#B9B9B9" stroke-linecap="round" stroke-linejoin="round" points="248.5165 395.6318 248.5165 404.7978 259.0105 410.6318 259.0105 401.7978"></polygon>
                    <polygon id="Stroke-294" stroke="#B9B9B9" stroke-linecap="round" stroke-linejoin="round" points="248.5165 382.4209 248.5165 391.5869 259.0105 397.4209 259.0105 388.5869"></polygon>
                    <polygon id="Stroke-296" stroke="#B9B9B9" stroke-linecap="round" stroke-linejoin="round" points="248.5165 370.1836 248.5165 379.3506 259.0105 385.1836 259.0105 376.3506"></polygon>
                    <polygon id="Stroke-298" stroke="#B9B9B9" stroke-linecap="round" stroke-linejoin="round" points="248.5165 357.4863 248.5165 366.6533 259.0105 372.4863 259.0105 363.6533"></polygon>
                    <polygon id="Stroke-300" stroke="#B9B9B9" stroke-linecap="round" stroke-linejoin="round" points="248.5165 343.6211 248.5165 352.7881 259.0105 358.6211 259.0105 349.7881"></polygon>
                    <polygon id="Stroke-302" stroke="#B9B9B9" stroke-linecap="round" stroke-linejoin="round" points="248.5165 331.1357 248.5165 340.3027 259.0105 346.1357 259.0105 337.3027"></polygon>
                    <polyline id="Stroke-304" stroke="#B9B9B9" stroke-linecap="round" stroke-linejoin="round" points="116.3348 561.5 116.3348 293.962 125.3348 288.297"></polyline>
                    <path d="M116.3348,302.5542 C116.3348,303.2502 124.3348,297.8782 124.3348,297.8782" id="Stroke-306" stroke="#B9B9B9" stroke-linecap="round" stroke-linejoin="round"></path>
                    <path d="M116.8348,315.3071 C116.8348,316.0031 124.8348,310.6311 124.8348,310.6311" id="Stroke-308" stroke="#B9B9B9" stroke-linecap="round" stroke-linejoin="round"></path>
                    <path d="M116.5848,330.8066 C116.5848,331.5016 124.5848,326.1306 124.5848,326.1306" id="Stroke-310" stroke="#B9B9B9" stroke-linecap="round" stroke-linejoin="round"></path>
                    <path d="M117.0848,343.5596 C117.0848,344.2546 125.0848,338.8826 125.0848,338.8826" id="Stroke-312" stroke="#B9B9B9" stroke-linecap="round" stroke-linejoin="round"></path>
                    <path d="M116.5848,357.9961 C116.5848,358.6911 124.5848,353.3191 124.5848,353.3191" id="Stroke-314" stroke="#B9B9B9" stroke-linecap="round" stroke-linejoin="round"></path>
                    <path d="M117.0848,372.749 C117.0848,373.444 125.0848,368.072 125.0848,368.072" id="Stroke-316" stroke="#B9B9B9" stroke-linecap="round" stroke-linejoin="round"></path>
                    <path d="M116.8348,387.4619 C116.8348,388.1579 124.8348,382.7859 124.8348,382.7859" id="Stroke-318" stroke="#B9B9B9" stroke-linecap="round" stroke-linejoin="round"></path>
                    <path d="M116.3348,401.8984 C116.3348,402.5944 124.3348,397.2224 124.3348,397.2224" id="Stroke-320" stroke="#B9B9B9" stroke-linecap="round" stroke-linejoin="round"></path>
                    <path d="M116.8348,416.6514 C116.8348,417.3474 124.8348,411.9754 124.8348,411.9754" id="Stroke-322" stroke="#B9B9B9" stroke-linecap="round" stroke-linejoin="round"></path>
                    <path d="M116.8348,430.0049 L124.8348,426.4999" id="Stroke-324" stroke="#B9B9B9" stroke-linecap="round" stroke-linejoin="round"></path>
                    <path d="M116.8348,444.2148 L124.8348,441.2498" id="Stroke-326" stroke="#B9B9B9" stroke-linecap="round" stroke-linejoin="round"></path>
                    <path d="M116.8348,458.0225 L124.8348,454.5175" id="Stroke-328" stroke="#B9B9B9" stroke-linecap="round" stroke-linejoin="round"></path>
                    <path d="M116.8348,472.2324 L124.8348,469.2674" id="Stroke-330" stroke="#B9B9B9" stroke-linecap="round" stroke-linejoin="round"></path>
                    <path d="M116.8348,486.6953 L124.8348,483.1903" id="Stroke-332" stroke="#B9B9B9" stroke-linecap="round" stroke-linejoin="round"></path>
                    <path d="M116.8348,500.9053 L124.8348,497.9403" id="Stroke-334" stroke="#B9B9B9" stroke-linecap="round" stroke-linejoin="round"></path>
                    <path d="M116.8348,515.3086 L124.8348,513.1276" id="Stroke-336" stroke="#B9B9B9" stroke-linecap="round" stroke-linejoin="round"></path>
                    <path d="M116.8348,528.25 L124.8348,526.75" id="Stroke-338" stroke="#B9B9B9" stroke-linecap="round" stroke-linejoin="round"></path>
                    <path d="M116.8348,541.9131 L124.8348,541.9131" id="Stroke-340" stroke="#B9B9B9" stroke-linecap="round" stroke-linejoin="round"></path>
                    <path d="M116.3348,557.0977 L124.8348,557.0977" id="Stroke-342" stroke="#B9B9B9" stroke-linecap="round" stroke-linejoin="round"></path>
                    <path d="M136.3348,241.751 L151.5848,230.167" id="Stroke-344" stroke="#B9B9B9" stroke-linecap="round"></path>
                    <path d="M151.5848,235 C150.5018,235.167 135.5018,246.667 135.5018,246.667 L134.6678,585.333" id="Stroke-346" stroke="#B9B9B9" stroke-linecap="round"></path>
                    <path d="M143.1268,240.9038 L144.1268,587.3328" id="Stroke-348" stroke="#B9B9B9" stroke-linecap="round" stroke-linejoin="round"></path>
                    <path d="M135.4608,263.2593 L151.5848,251.5003" id="Stroke-350" stroke="#B9B9B9" stroke-linecap="round" stroke-linejoin="round"></path>
                    <path d="M135.8973,279.6289 L152.0223,267.8699" id="Stroke-352" stroke="#B9B9B9" stroke-linecap="round" stroke-linejoin="round"></path>
                    <path d="M135.8456,294.4912 L151.9696,282.7322" id="Stroke-354" stroke="#B9B9B9" stroke-linecap="round" stroke-linejoin="round"></path>
                    <path d="M136.2831,310.8608 L152.4071,299.1018" id="Stroke-356" stroke="#B9B9B9" stroke-linecap="round" stroke-linejoin="round"></path>
                    <path d="M135.8456,326.1943 L151.9696,314.4353" id="Stroke-358" stroke="#B9B9B9" stroke-linecap="round" stroke-linejoin="round"></path>
                    <path d="M136.2831,342.5635 L152.4071,330.8045" id="Stroke-360" stroke="#B9B9B9" stroke-linecap="round" stroke-linejoin="round"></path>
                    <path d="M136.0643,358.9336 L152.1883,348.1736" id="Stroke-362" stroke="#B9B9B9" stroke-linecap="round" stroke-linejoin="round"></path>
                    <path d="M135.5018,375.3027 L152.6258,364.5437" id="Stroke-364" stroke="#B9B9B9" stroke-linecap="round" stroke-linejoin="round"></path>
                    <path d="M135.5018,391.3691 L152.1888,382.7861" id="Stroke-366" stroke="#B9B9B9" stroke-linecap="round" stroke-linejoin="round"></path>
                    <path d="M135.5018,407.708 L152.1888,399.125" id="Stroke-368" stroke="#B9B9B9" stroke-linecap="round" stroke-linejoin="round"></path>
                    <path d="M135.7831,424.0469 L152.4701,415.4639" id="Stroke-370" stroke="#B9B9B9" stroke-linecap="round" stroke-linejoin="round"></path>
                    <path d="M135.0282,438.8838 L152.5852,433.4768" id="Stroke-372" stroke="#B9B9B9" stroke-linecap="round" stroke-linejoin="round"></path>
                    <path d="M135.3485,455.1338 L152.9045,449.7268" id="Stroke-374" stroke="#B9B9B9" stroke-linecap="round" stroke-linejoin="round"></path>
                    <path d="M135.3485,471.0508 L152.9045,465.6438" id="Stroke-376" stroke="#B9B9B9" stroke-linecap="round" stroke-linejoin="round"></path>
                    <path d="M135.3485,488.3135 L152.9045,482.9065" id="Stroke-378" stroke="#B9B9B9" stroke-linecap="round" stroke-linejoin="round"></path>
                    <path d="M135.3485,504.2314 L152.9045,498.8244" id="Stroke-380" stroke="#B9B9B9" stroke-linecap="round" stroke-linejoin="round"></path>
                    <path d="M135.3485,520.1484 L152.9045,515.7414" id="Stroke-382" stroke="#B9B9B9" stroke-linecap="round" stroke-linejoin="round"></path>
                    <path d="M135.3485,536.7031 L152.9045,532.2971" id="Stroke-384" stroke="#B9B9B9" stroke-linecap="round" stroke-linejoin="round"></path>
                    <path d="M135.3485,552.3701 L152.9045,548.9631" id="Stroke-386" stroke="#B9B9B9" stroke-linecap="round" stroke-linejoin="round"></path>
                    <path d="M135.3485,567.2275 L152.9045,564.8205" id="Stroke-388" stroke="#B9B9B9" stroke-linecap="round" stroke-linejoin="round"></path>
                    <path d="M358.0848,153.1665 C358.0848,152.1665 376.1498,125.5015 376.1498,125.5015" id="Stroke-390" stroke="#B9B9B9" stroke-linecap="round" stroke-linejoin="round"></path>
                    <path d="M370.0526,535.834 L368.6266,136.694" id="Stroke-392" stroke="#B9B9B9" stroke-linecap="round" stroke-linejoin="round"></path>
                    <path d="M358.0848,533.8125 C360.0018,533.5005 380.3348,526.5615 380.3348,526.5615" id="Stroke-394" stroke="#B9B9B9" stroke-linecap="round" stroke-linejoin="round"></path>
                    <path d="M358.0848,514.2783 C360.0018,513.9663 380.3348,507.0273 380.3348,507.0273" id="Stroke-396" stroke="#B9B9B9" stroke-linecap="round" stroke-linejoin="round"></path>
                    <path d="M358.2147,493.7217 C360.1307,493.4097 380.4647,486.4717 380.4647,486.4717" id="Stroke-398" stroke="#B9B9B9" stroke-linecap="round" stroke-linejoin="round"></path>
                    <path d="M358.5477,473.165 C360.5157,472.508 379.9207,464.3 379.9207,464.3" id="Stroke-400" stroke="#B9B9B9" stroke-linecap="round" stroke-linejoin="round"></path>
                    <path d="M358.5477,453.6885 C360.5157,453.0305 379.1377,444.1945 379.1377,444.1945" id="Stroke-402" stroke="#B9B9B9" stroke-linecap="round" stroke-linejoin="round"></path>
                    <path d="M358.3319,434.5605 L378.9219,422.0655" id="Stroke-404" stroke="#B9B9B9" stroke-linecap="round" stroke-linejoin="round"></path>
                    <path d="M358.3319,414.0771 L378.9219,399.5821" id="Stroke-406" stroke="#B9B9B9" stroke-linecap="round" stroke-linejoin="round"></path>
                    <path d="M358.3319,393.752 L378.9219,377.257" id="Stroke-408" stroke="#B9B9B9" stroke-linecap="round" stroke-linejoin="round"></path>
                    <path d="M358.3319,373.7119 L378.7089,355.4089" id="Stroke-410" stroke="#B9B9B9" stroke-linecap="round" stroke-linejoin="round"></path>
                    <path d="M358.3319,353.583 L378.4749,334.416" id="Stroke-412" stroke="#B9B9B9" stroke-linecap="round" stroke-linejoin="round"></path>
                    <path d="M358.3319,334.416 L378.2489,314.122" id="Stroke-414" stroke="#B9B9B9" stroke-linecap="round" stroke-linejoin="round"></path>
                    <path d="M358.6678,314.979 L378.0198,293.497" id="Stroke-416" stroke="#B9B9B9" stroke-linecap="round" stroke-linejoin="round"></path>
                    <path d="M358.3319,295 L377.7829,272.249" id="Stroke-418" stroke="#B9B9B9" stroke-linecap="round" stroke-linejoin="round"></path>
                    <path d="M358.3319,274.1289 L377.5329,249.7509" id="Stroke-420" stroke="#B9B9B9" stroke-linecap="round" stroke-linejoin="round"></path>
                    <path d="M358.0848,255.9243 L377.2848,231.5463" id="Stroke-422" stroke="#B9B9B9" stroke-linecap="round" stroke-linejoin="round"></path>
                    <path d="M358.3319,235.375 L376.7099,208.875" id="Stroke-424" stroke="#B9B9B9" stroke-linecap="round" stroke-linejoin="round"></path>
                    <path d="M358.3319,215.125 L376.7099,188" id="Stroke-426" stroke="#B9B9B9" stroke-linecap="round" stroke-linejoin="round"></path>
                    <path d="M358.3319,193.875 L376.1499,166.875" id="Stroke-428" stroke="#B9B9B9" stroke-linecap="round" stroke-linejoin="round"></path>
                    <path d="M376.0018,146.875 C374.8348,147.375 358.3318,169 358.3318,169" id="Stroke-430" stroke="#B9B9B9" stroke-linecap="round" stroke-linejoin="round"></path>
                    <path d="M124.3348,576.208 L13.8427734,579.019531" id="Stroke-432" stroke="#B9B9B9" stroke-linecap="round" stroke-linejoin="round"></path>
                    <path d="M402.0018,93.5 L413.9908,102.5" id="Stroke-434" stroke="#B9B9B9" stroke-linecap="round" stroke-linejoin="round"></path>
                    <path d="M402.0018,112.1665 L413.9908,121.4995" id="Stroke-436" stroke="#B9B9B9" stroke-linecap="round" stroke-linejoin="round"></path>
                    <path d="M401.8134,136.6943 L413.9914,144.0003" id="Stroke-438" stroke="#B9B9B9" stroke-linecap="round" stroke-linejoin="round"></path>
                    <path d="M402.0956,160.1943 L414.0846,169.1943" id="Stroke-440" stroke="#B9B9B9" stroke-linecap="round" stroke-linejoin="round"></path>
                    <path d="M402.0956,180.8608 L414.0846,190.1938" id="Stroke-442" stroke="#B9B9B9" stroke-linecap="round" stroke-linejoin="round"></path>
                    <path d="M401.9081,205.3887 L414.0851,212.6947" id="Stroke-444" stroke="#B9B9B9" stroke-linecap="round" stroke-linejoin="round"></path>
                    <path d="M401.8134,227.8887 L413.9914,235.1947" id="Stroke-446" stroke="#B9B9B9" stroke-linecap="round" stroke-linejoin="round"></path>
                    <path d="M401.8134,250.3887 L413.9914,257.6947" id="Stroke-448" stroke="#B9B9B9" stroke-linecap="round" stroke-linejoin="round"></path>
                    <path d="M401.8134,272.8887 L413.9914,280.1947" id="Stroke-450" stroke="#B9B9B9" stroke-linecap="round" stroke-linejoin="round"></path>
                    <path d="M401.8134,295.3887 L413.9914,302.6947" id="Stroke-452" stroke="#B9B9B9" stroke-linecap="round" stroke-linejoin="round"></path>
                    <path d="M401.8134,317.8887 L413.9914,324.1947" id="Stroke-454" stroke="#B9B9B9" stroke-linecap="round" stroke-linejoin="round"></path>
                    <path d="M401.8134,341.5342 L413.9914,347.0002" id="Stroke-456" stroke="#B9B9B9" stroke-linecap="round" stroke-linejoin="round"></path>
                    <path d="M401.3348,364.5605 L413.9908,368.4995" id="Stroke-458" stroke="#B9B9B9" stroke-linecap="round" stroke-linejoin="round"></path>
                    <path d="M402.0018,386.5049 L413.9908,390.9209" id="Stroke-460" stroke="#B9B9B9" stroke-linecap="round" stroke-linejoin="round"></path>
                    <path d="M401.5897,408.9248 L413.5797,413.3418" id="Stroke-462" stroke="#B9B9B9" stroke-linecap="round" stroke-linejoin="round"></path>
                    <path d="M400.9589,433.4766 L413.9909,435.6536" id="Stroke-464" stroke="#B9B9B9" stroke-linecap="round" stroke-linejoin="round"></path>
                    <path d="M400.6678,458.2637 L413.5798,461.0997" id="Stroke-466" stroke="#B9B9B9" stroke-linecap="round" stroke-linejoin="round"></path>
                    <path d="M400.6678,478.667 L413.5798,481" id="Stroke-468" stroke="#B9B9B9" stroke-linecap="round" stroke-linejoin="round"></path>
                    <path d="M402.0018,500.5 L413.5798,503" id="Stroke-470" stroke="#B9B9B9" stroke-linecap="round" stroke-linejoin="round"></path>
                    <path d="M402.0018,522.8408 L413.5798,524.5698" id="Stroke-472" stroke="#B9B9B9" stroke-linecap="round" stroke-linejoin="round"></path>
                    <path d="M402.0018,544.4111 L413.5798,546.1401" id="Stroke-474" stroke="#B9B9B9" stroke-linecap="round" stroke-linejoin="round"></path>
                    <path d="M401.5409,562.9687 L413.1189,564.6977" id="Stroke-476" stroke="#B9B9B9" stroke-linecap="round" stroke-linejoin="round"></path>
                    <path d="M571.3348,86 L571.3348,512.937" id="Stroke-478" stroke="#B9B9B9" stroke-linecap="round" stroke-linejoin="round"></path>
                    <path d="M583.8348,117.5 L583.8188,511.377" id="Stroke-480" stroke="#B9B9B9" stroke-linecap="round" stroke-linejoin="round"></path>
                    <path d="M395.6678,64.8335 L396.0848,533.8125" id="Stroke-482" stroke="#B9B9B9" stroke-linecap="round" stroke-linejoin="round"></path>
                    <path d="M244.3348,313 L243.6148,495.517" id="Stroke-484" stroke="#B9B9B9" stroke-linecap="round" stroke-linejoin="round"></path>
                    <path d="M453.9198,56.8857 L470.0018,32.4997" id="Stroke-486" stroke="#B9B9B9" stroke-linecap="round" stroke-linejoin="round"></path>
                    <path d="M429.3348,94.1665 L442.6228,74.0165" id="Stroke-488" stroke="#B9B9B9" stroke-linecap="round" stroke-linejoin="round"></path>
                    <polyline id="Stroke-490" stroke="#B9B9B9" stroke-linecap="round" stroke-linejoin="round" points="431.3348 607.167 431.3348 544.077 444.8348 541.5 444.8348 607.167"></polyline>
                    <path d="M453.8348,539.667 L453.8348,607.167 L453.8348,539.667 Z" id="Stroke-492" stroke="#B9B9B9" stroke-linecap="round" stroke-linejoin="round"></path>
                    <path d="M470.8348,535.834 L453.8348,539.667 L470.8348,535.834 Z" id="Stroke-494" stroke="#B9B9B9" stroke-linecap="round" stroke-linejoin="round"></path>
                    <path d="M470.8348,607.167 L470.8348,535.834" id="Stroke-496" stroke="#B9B9B9" stroke-linecap="round" stroke-linejoin="round"></path>
                    <polygon id="Stroke-498" stroke="#B9B9B9" stroke-linecap="round" stroke-linejoin="round" points="431.3348 538.75 431.3348 522.841 444.8348 518.5 444.8348 535.834"></polygon>
                    <polygon id="Stroke-500" stroke="#B9B9B9" stroke-linecap="round" stroke-linejoin="round" points="454.3348 532.9658 454.3348 516.0578 470.8348 511.7158 470.8348 530.0498"></polygon>
                    <polygon id="Stroke-502" stroke="#B9B9B9" stroke-linecap="round" stroke-linejoin="round" points="431.3348 499.5 431.3348 517.5 444.8348 512.75 444.8348 495.25"></polygon>
                    <polygon id="Stroke-504" stroke="#B9B9B9" stroke-linecap="round" stroke-linejoin="round" points="454.3348 490.8486 454.3348 508.8486 470.8348 503.0986 470.8348 485.5986"></polygon>
                    <polygon id="Stroke-506" stroke="#B9B9B9" stroke-linecap="round" stroke-linejoin="round" points="431.3348 476.001 431.3348 493.001 444.8348 488.251 444.8348 470.751"></polygon>
                    <polygon id="Stroke-508" stroke="#B9B9B9" stroke-linecap="round" stroke-linejoin="round" points="454.3348 466.3496 454.3348 484.3496 470.8348 478.5996 470.8348 460.0996"></polygon>
                    <polygon id="Stroke-510" stroke="#B9B9B9" stroke-linecap="round" stroke-linejoin="round" points="431.3348 451.5537 431.3348 468.5537 444.8348 463.8037 444.8348 446.3037"></polygon>
                    <polygon id="Stroke-512" stroke="#B9B9B9" stroke-linecap="round" stroke-linejoin="round" points="454.3348 441.9033 454.3348 459.9033 470.8348 452.1533 470.8348 433.6533"></polygon>
                    <polygon id="Stroke-514" stroke="#B9B9B9" stroke-linecap="round" stroke-linejoin="round" points="431.3348 428.7637 431.3348 445.7637 444.8348 440.0137 444.8348 422.5137"></polygon>
                    <polygon id="Stroke-516" stroke="#B9B9B9" stroke-linecap="round" stroke-linejoin="round" points="454.3348 416.1123 454.3348 434.1123 470.8348 426.3623 470.8348 407.8623"></polygon>
                    <polygon id="Stroke-518" stroke="#B9B9B9" stroke-linecap="round" stroke-linejoin="round" points="431.3348 405.4053 431.3348 421.4053 444.8348 415.6553 444.8348 398.1553"></polygon>
                    <polygon id="Stroke-520" stroke="#B9B9B9" stroke-linecap="round" stroke-linejoin="round" points="454.3348 391.7549 454.3348 409.7549 470.8348 400.0049 470.8348 381.5049"></polygon>
                    <polygon id="Stroke-522" stroke="#B9B9B9" stroke-linecap="round" stroke-linejoin="round" points="431.3348 383.1553 431.3348 399.1553 444.8348 392.4053 444.8348 374.9053"></polygon>
                    <polygon id="Stroke-524" stroke="#B9B9B9" stroke-linecap="round" stroke-linejoin="round" points="454.3348 366.5049 454.3348 384.5049 470.8348 374.7549 470.8348 356.2549"></polygon>
                    <polygon id="Stroke-526" stroke="#B9B9B9" stroke-linecap="round" stroke-linejoin="round" points="431.3348 359.3594 431.3348 375.3594 444.8348 367.6094 444.8348 349.1094"></polygon>
                    <polygon id="Stroke-528" stroke="#B9B9B9" stroke-linecap="round" stroke-linejoin="round" points="454.3348 341.708 454.3348 359.708 470.8348 347.958 470.8348 329.458"></polygon>
                    <polygon id="Stroke-530" stroke="#B9B9B9" stroke-linecap="round" stroke-linejoin="round" points="431.3348 336.4092 431.3348 352.4092 444.8348 342.6592 444.8348 326.1592"></polygon>
                    <polygon id="Stroke-532" stroke="#B9B9B9" stroke-linecap="round" stroke-linejoin="round" points="454.3348 316.7578 454.3348 334.7578 470.8348 323.0078 470.8348 304.5078"></polygon>
                    <polygon id="Stroke-534" stroke="#B9B9B9" stroke-linecap="round" stroke-linejoin="round" points="431.413 313.2461 431.413 328.2461 444.913 318.4961 444.913 301.9961"></polygon>
                    <polygon id="Stroke-536" stroke="#B9B9B9" stroke-linecap="round" stroke-linejoin="round" points="454.413 292.5947 454.413 308.5947 470.913 296.8447 470.913 278.3447"></polygon>
                    <polygon id="Stroke-538" stroke="#B9B9B9" stroke-linecap="round" stroke-linejoin="round" points="431.3348 290.145 431.3348 305.145 444.8348 294.395 444.8348 277.895"></polygon>
                    <polygon id="Stroke-540" stroke="#B9B9B9" stroke-linecap="round" stroke-linejoin="round" points="454.3348 267.4937 454.3348 285.4937 470.8348 270.7437 470.8348 253.2437"></polygon>
                    <polygon id="Stroke-542" stroke="#B9B9B9" stroke-linecap="round" stroke-linejoin="round" points="431.3348 266.875 431.3348 282.875 444.8348 270.125 444.8348 253.625"></polygon>
                    <polygon id="Stroke-544" stroke="#B9B9B9" stroke-linecap="round" stroke-linejoin="round" points="454.3348 243.2236 454.3348 261.2236 470.8348 244.4736 470.8348 225.9736"></polygon>
                    <polygon id="Stroke-546" stroke="#B9B9B9" stroke-linecap="round" stroke-linejoin="round" points="431.3348 242.9966 431.3348 258.9966 444.8348 246.2466 444.8348 229.7466"></polygon>
                    <polygon id="Stroke-548" stroke="#B9B9B9" stroke-linecap="round" stroke-linejoin="round" points="431.3348 219.75 431.3348 235.75 444.8348 222 444.8348 205.5"></polygon>
                    <polygon id="Stroke-550" stroke="#B9B9B9" stroke-linecap="round" stroke-linejoin="round" points="431.3348 198.1108 431.3348 212.1108 444.8348 197.3608 444.8348 180.8608"></polygon>
                    <polygon id="Stroke-552" stroke="#B9B9B9" stroke-linecap="round" stroke-linejoin="round" points="431.2294 174.3052 431.2294 189.3052 444.7294 173.5552 444.7294 157.0552"></polygon>
                    <polygon id="Stroke-554" stroke="#B9B9B9" stroke-linecap="round" stroke-linejoin="round" points="431.2294 150.4585 431.2294 166.4585 444.7294 149.7085 444.7294 133.2085"></polygon>
                    <polygon id="Stroke-556" stroke="#B9B9B9" stroke-linecap="round" stroke-linejoin="round" points="431.2294 127.2358 431.2294 143.2358 444.7294 126.4858 444.7294 109.9858"></polygon>
                    <polygon id="Stroke-558" stroke="#B9B9B9" stroke-linecap="round" stroke-linejoin="round" points="431.2294 102.8057 431.2294 118.8057 444.7294 102.0557 444.7294 85.5557"></polygon>
                    <polygon id="Stroke-560" stroke="#B9B9B9" stroke-linecap="round" stroke-linejoin="round" points="454.3348 217.3452 454.3348 235.3452 470.8348 218.5952 470.8348 200.0952"></polygon>
                    <polygon id="Stroke-562" stroke="#B9B9B9" stroke-linecap="round" stroke-linejoin="round" points="454.3348 191.9302 454.3348 209.9302 470.8348 192.1802 470.8348 173.6802"></polygon>
                    <polygon id="Stroke-564" stroke="#B9B9B9" stroke-linecap="round" stroke-linejoin="round" points="454.3348 168 454.3348 185 470.8348 166.25 470.8348 147.75"></polygon>
                    <polygon id="Stroke-566" stroke="#B9B9B9" stroke-linecap="round" stroke-linejoin="round" points="454.2821 141.9722 454.2821 158.9722 470.7821 140.2222 470.7821 121.7222"></polygon>
                    <polygon id="Stroke-568" stroke="#B9B9B9" stroke-linecap="round" stroke-linejoin="round" points="453.7108 117.4585 453.7108 134.4585 470.2108 115.7085 470.2108 97.2085"></polygon>
                    <polygon id="Stroke-570" stroke="#B9B9B9" stroke-linecap="round" stroke-linejoin="round" points="454.2821 92.9858 454.2821 109.9858 470.7821 89.2358 470.7821 70.7358"></polygon>
                    <polygon id="Stroke-572" stroke="#B9B9B9" stroke-linecap="round" stroke-linejoin="round" points="453.7108 69.9858 453.7108 86.9858 470.2108 63.2358 470.2108 44.7358"></polygon>
                    <polyline id="Stroke-574" stroke="#AAAAAA" stroke-linecap="round" stroke-linejoin="round" points="498.8348 528.625 489.0018 528.625 489.0018 508.938 505.3348 510.653 505.3348 521.063"></polyline>
                    <polyline id="Stroke-576" stroke="#AAAAAA" stroke-linecap="round" stroke-linejoin="round" points="513.3348 518.7812 513.3348 511.7162 527.3348 512.9372 527.3348 517.5002"></polyline>
                    <polyline id="Stroke-578" stroke="#AAAAAA" stroke-linecap="round" stroke-linejoin="round" points="534.8348 517.5 534.8348 512.938 547.6678 515.187"></polyline>
                    <polygon id="Stroke-580" stroke="#AAAAAA" stroke-linecap="round" stroke-linejoin="round" points="489.0018 481.876 489.0018 501.75 505.3348 504 505.3348 484.599"></polygon>
                    <polygon id="Stroke-582" stroke="#AAAAAA" stroke-linecap="round" stroke-linejoin="round" points="512.0018 485.5986 512.0018 503.9996 527.3348 506.3746 527.3348 487.4996"></polygon>
                    <polygon id="Stroke-584" stroke="#AAAAAA" stroke-linecap="round" stroke-linejoin="round" points="534.8348 489.0967 534.8348 507.0277 547.6678 508.9377 547.6678 491.4377"></polygon>
                    <polygon id="Stroke-586" stroke="#AAAAAA" stroke-linecap="round" stroke-linejoin="round" points="489.3348 456.2197 489.3348 476.0937 505.6678 478.3437 505.6678 458.9427"></polygon>
                    <polygon id="Stroke-588" stroke="#AAAAAA" stroke-linecap="round" stroke-linejoin="round" points="512.3348 459.9424 512.3348 478.3434 527.6678 480.7184 527.6678 461.8434"></polygon>
                    <polygon id="Stroke-590" stroke="#AAAAAA" stroke-linecap="round" stroke-linejoin="round" points="535.1678 463.4404 535.1678 481.3724 548.0018 483.2814 548.0018 465.7824"></polygon>
                    <polygon id="Stroke-592" stroke="#AAAAAA" stroke-linecap="round" stroke-linejoin="round" points="489.0018 429.1582 489.0018 449.0322 505.3348 451.2822 505.3348 431.8812"></polygon>
                    <polygon id="Stroke-594" stroke="#AAAAAA" stroke-linecap="round" stroke-linejoin="round" points="512.0018 433.8809 512.0018 452.2819 527.3348 454.6569 527.3348 436.7819"></polygon>
                    <polygon id="Stroke-596" stroke="#AAAAAA" stroke-linecap="round" stroke-linejoin="round" points="534.8348 438.3789 534.8348 455.3099 547.6678 457.2199 547.6678 440.7199"></polygon>
                    <polygon id="Stroke-598" stroke="#AAAAAA" stroke-linecap="round" stroke-linejoin="round" points="489.0018 403.4082 489.0018 423.2822 505.3348 425.5322 505.3348 406.1312"></polygon>
                    <polygon id="Stroke-600" stroke="#AAAAAA" stroke-linecap="round" stroke-linejoin="round" points="512.0018 408.1309 512.0018 426.5319 527.3348 429.9069 527.3348 412.0319"></polygon>
                    <polygon id="Stroke-602" stroke="#AAAAAA" stroke-linecap="round" stroke-linejoin="round" points="534.8348 414.6289 534.8348 430.5599 547.6678 432.4699 547.6678 417.9699"></polygon>
                    <polygon id="Stroke-604" stroke="#AAAAAA" stroke-linecap="round" stroke-linejoin="round" points="489.0018 376.3896 489.0018 396.2636 505.3348 399.5136 505.3348 380.1136"></polygon>
                    <polygon id="Stroke-606" stroke="#AAAAAA" stroke-linecap="round" stroke-linejoin="round" points="512.0018 382.1133 512.0018 400.5133 527.3348 404.8883 527.3348 387.0133"></polygon>
                    <polygon id="Stroke-608" stroke="#AAAAAA" stroke-linecap="round" stroke-linejoin="round" points="534.8348 389.6104 534.8348 405.5424 547.6678 408.4514 547.6678 392.9524"></polygon>
                    <polygon id="Stroke-610" stroke="#AAAAAA" stroke-linecap="round" stroke-linejoin="round" points="489.0018 349.5293 489.0018 369.4043 505.3348 373.6543 505.3348 354.2533"></polygon>
                    <polygon id="Stroke-612" stroke="#AAAAAA" stroke-linecap="round" stroke-linejoin="round" points="512.0018 356.2529 512.0018 374.6539 527.3348 379.0289 527.3348 361.1539"></polygon>
                    <polygon id="Stroke-614" stroke="#AAAAAA" stroke-linecap="round" stroke-linejoin="round" points="534.8348 364.751 534.8348 380.682 547.6678 383.592 547.6678 368.092"></polygon>
                    <polygon id="Stroke-616" stroke="#AAAAAA" stroke-linecap="round" stroke-linejoin="round" points="489.0018 322.2529 489.0018 342.1269 505.3348 346.3769 505.3348 328.9769"></polygon>
                    <polygon id="Stroke-618" stroke="#AAAAAA" stroke-linecap="round" stroke-linejoin="round" points="512.0018 330.9766 512.0018 349.3766 527.3348 354.7516 527.3348 336.8766"></polygon>
                    <polygon id="Stroke-620" stroke="#AAAAAA" stroke-linecap="round" stroke-linejoin="round" points="534.8348 340.4736 534.8348 356.4056 547.6678 360.3146 547.6678 344.8156"></polygon>
                    <polygon id="Stroke-622" stroke="#AAAAAA" stroke-linecap="round" stroke-linejoin="round" points="489.0018 296.0898 489.0018 315.9648 505.3348 321.2148 505.3348 302.8138"></polygon>
                    <polygon id="Stroke-624" stroke="#AAAAAA" stroke-linecap="round" stroke-linejoin="round" points="512.0018 305.8135 512.0018 324.2145 527.3348 329.5895 527.3348 311.7145"></polygon>
                    <polygon id="Stroke-626" stroke="#AAAAAA" stroke-linecap="round" stroke-linejoin="round" points="534.8348 316.311 534.8348 332.242 547.6678 336.152 547.6678 320.652"></polygon>
                    <polygon id="Stroke-628" stroke="#AAAAAA" stroke-linecap="round" stroke-linejoin="round" points="489.0018 269.3687 489.0018 289.2437 505.3348 294.4937 505.3348 276.0917"></polygon>
                    <polygon id="Stroke-630" stroke="#AAAAAA" stroke-linecap="round" stroke-linejoin="round" points="512.0018 280.0918 512.0018 298.4928 527.3348 303.8678 527.3348 285.9928"></polygon>
                    <polygon id="Stroke-632" stroke="#AAAAAA" stroke-linecap="round" stroke-linejoin="round" points="534.8348 291.5898 534.8348 307.5208 547.6678 311.4308 547.6678 295.9308"></polygon>
                    <polygon id="Stroke-634" stroke="#AAAAAA" stroke-linecap="round" stroke-linejoin="round" points="489.0018 243.6475 489.0018 263.5215 505.3348 268.7715 505.3348 250.3705"></polygon>
                    <polygon id="Stroke-636" stroke="#AAAAAA" stroke-linecap="round" stroke-linejoin="round" points="512.0018 254.3706 512.0018 272.7716 527.3348 279.1466 527.3348 261.2716"></polygon>
                    <polygon id="Stroke-638" stroke="#AAAAAA" stroke-linecap="round" stroke-linejoin="round" points="534.8348 265.8682 534.8348 281.7992 547.6678 287.7092 547.6678 272.2092"></polygon>
                    <polygon id="Stroke-640" stroke="#AAAAAA" stroke-linecap="round" stroke-linejoin="round" points="489.0018 217.1616 489.0018 237.0366 505.3348 242.2866 505.3348 223.8846"></polygon>
                    <polygon id="Stroke-642" stroke="#AAAAAA" stroke-linecap="round" stroke-linejoin="round" points="512.0018 228.8848 512.0018 247.2858 527.3348 253.6608 527.3348 235.7858"></polygon>
                    <polygon id="Stroke-644" stroke="#AAAAAA" stroke-linecap="round" stroke-linejoin="round" points="534.8348 241.3828 534.8348 257.3138 547.6678 263.2238 547.6678 247.7238"></polygon>
                    <polygon id="Stroke-646" stroke="#AAAAAA" stroke-linecap="round" stroke-linejoin="round" points="489.0018 189.6631 489.0018 209.5381 505.3348 215.7881 505.3348 197.3871"></polygon>
                    <polygon id="Stroke-648" stroke="#AAAAAA" stroke-linecap="round" stroke-linejoin="round" points="512.0018 202.3867 512.0018 220.7877 527.3348 228.1627 527.3348 210.2877"></polygon>
                    <polygon id="Stroke-650" stroke="#AAAAAA" stroke-linecap="round" stroke-linejoin="round" points="534.8348 215.8843 534.8348 231.8153 547.6678 238.7253 547.6678 223.2253"></polygon>
                    <polygon id="Stroke-652" stroke="#AAAAAA" stroke-linecap="round" stroke-linejoin="round" points="489.0018 163.0488 489.0018 182.9238 505.3348 189.1738 505.3348 170.7728"></polygon>
                    <polygon id="Stroke-654" stroke="#AAAAAA" stroke-linecap="round" stroke-linejoin="round" points="512.0018 176.7725 512.0018 195.1735 527.3348 202.5485 527.3348 184.6735"></polygon>
                    <polygon id="Stroke-656" stroke="#AAAAAA" stroke-linecap="round" stroke-linejoin="round" points="534.8348 191.27 534.8348 207.201 547.6678 214.111 547.6678 198.611"></polygon>
                    <polygon id="Stroke-658" stroke="#AAAAAA" stroke-linecap="round" stroke-linejoin="round" points="489.0018 136.2275 489.0018 157.1025 505.3348 163.3525 505.3348 145.9505"></polygon>
                    <polygon id="Stroke-660" stroke="#AAAAAA" stroke-linecap="round" stroke-linejoin="round" points="512.0018 150.9507 512.0018 170.3517 527.3348 177.7267 527.3348 159.8517"></polygon>
                    <polygon id="Stroke-662" stroke="#AAAAAA" stroke-linecap="round" stroke-linejoin="round" points="534.8348 165.4482 534.8348 182.3792 547.6678 189.2892 547.6678 173.7892"></polygon>
                    <polygon id="Stroke-664" stroke="#AAAAAA" stroke-linecap="round" stroke-linejoin="round" points="489.0018 109.2192 489.0018 130.0932 505.3348 139.3432 505.3348 118.9422"></polygon>
                    <polygon id="Stroke-666" stroke="#AAAAAA" stroke-linecap="round" stroke-linejoin="round" points="512.0018 124.9424 512.0018 144.3434 527.3348 152.7184 527.3348 133.8434"></polygon>
                    <polygon id="Stroke-668" stroke="#AAAAAA" stroke-linecap="round" stroke-linejoin="round" points="534.8348 140.4399 534.8348 157.3709 547.6678 166.2809 547.6678 148.7809"></polygon>
                    <polygon id="Stroke-670" stroke="#AAAAAA" stroke-linecap="round" stroke-linejoin="round" points="489.0018 82.6357 489.0018 103.5107 505.3348 112.7607 505.3348 92.3587"></polygon>
                    <polygon id="Stroke-672" stroke="#AAAAAA" stroke-linecap="round" stroke-linejoin="round" points="512.0018 99.3589 512.0018 118.7599 527.3348 127.1349 527.3348 108.2599"></polygon>
                    <polygon id="Stroke-674" stroke="#AAAAAA" stroke-linecap="round" stroke-linejoin="round" points="534.8348 116.8569 534.8348 133.7879 547.6678 142.6979 547.6678 125.1979"></polygon>
                    <polygon id="Stroke-676" stroke="#AAAAAA" stroke-linecap="round" stroke-linejoin="round" points="489.4266 56.9551 489.4266 77.8301 505.7596 87.0801 505.7596 66.6781"></polygon>
                    <polygon id="Stroke-678" stroke="#AAAAAA" stroke-linecap="round" stroke-linejoin="round" points="512.4266 73.6782 512.4266 93.0792 527.7596 102.4542 527.7596 83.5792"></polygon>
                    <polygon id="Stroke-680" stroke="#AAAAAA" stroke-linecap="round" stroke-linejoin="round" points="535.2596 91.1763 535.2596 108.1073 548.0926 117.0173 548.0926 100.5173"></polygon>
                    <polygon id="Stroke-682" stroke="#AAAAAA" stroke-linecap="round" stroke-linejoin="round" points="489.0018 29.7715 489.0018 50.6465 505.3348 60.8965 505.3348 40.4945"></polygon>
                    <polygon id="Stroke-684" stroke="#AAAAAA" stroke-linecap="round" stroke-linejoin="round" points="512.0018 46.4946 512.0018 65.8956 527.3348 77.2706 527.3348 58.3956"></polygon>
                    <polygon id="Stroke-686" stroke="#AAAAAA" stroke-linecap="round" stroke-linejoin="round" points="534.8348 65.9927 534.8348 81.9237 547.6678 90.8337 547.6678 75.3337"></polygon>
                    <polygon id="Stroke-688" stroke="#AAAAAA" stroke-linecap="round" stroke-linejoin="round" points="512.4266 29.7715 512.4266 40.3335 527.7596 53.0005 527.7596 43.1665"></polygon>
                    <polygon id="Stroke-690" stroke="#AAAAAA" stroke-linecap="round" stroke-linejoin="round" points="489.0018 12.5869 489.0018 21.9999 505.5468 34.8159 505.5468 24.9819"></polygon>
                    <polygon id="Stroke-692" stroke="#AAAAAA" stroke-linecap="round" stroke-linejoin="round" points="533.7596 48.5073 533.7596 58.0693 548.0926 70.7363 548.0926 60.9033"></polygon>
                    <path d="M611.3348,507.0273 L611.3348,189.6603 L611.3348,148.3253 L611.3348,133.2083 C611.3348,136.5003 646.0018,180.8603 646.0018,180.8603" id="Stroke-694" stroke="#AAAAAA" stroke-linecap="round" stroke-linejoin="round"></path>
                    <path d="M632.0018,163.4482 L632.0018,505.0002" id="Stroke-696" stroke="#AAAAAA" stroke-linecap="round" stroke-linejoin="round"></path>
                    <path d="M640.0018,174.1113 L640.0018,503.0003" id="Stroke-698" stroke="#AAAAAA" stroke-linecap="round" stroke-linejoin="round"></path>
                    <polyline id="Stroke-700" stroke="#AAAAAA" stroke-linecap="round" stroke-linejoin="round" points="611.3348 503 621.3348 506.128 621.3348 148.951"></polyline>
                    <path d="M611.3348,481.876 L646.0018,495.25" id="Stroke-702" stroke="#AAAAAA" stroke-linecap="round" stroke-linejoin="round"></path>
                    <path d="M611.3348,460.9033 L646.0018,476.3433" id="Stroke-704" stroke="#AAAAAA" stroke-linecap="round" stroke-linejoin="round"></path>
                    <path d="M611.3348,438.3789 L646.0018,458.2199" id="Stroke-706" stroke="#AAAAAA" stroke-linecap="round" stroke-linejoin="round"></path>
                    <path d="M611.3348,419.9863 L646.0018,439.8273" id="Stroke-708" stroke="#AAAAAA" stroke-linecap="round" stroke-linejoin="round"></path>
                    <path d="M611.3348,399.8604 L646.0018,419.7014" id="Stroke-710" stroke="#AAAAAA" stroke-linecap="round" stroke-linejoin="round"></path>
                    <path d="M611.3348,375.0313 L646.0018,402.8723" id="Stroke-712" stroke="#AAAAAA" stroke-linecap="round" stroke-linejoin="round"></path>
                    <path d="M611.3348,354.752 L646.0018,384.505" id="Stroke-714" stroke="#AAAAAA" stroke-linecap="round" stroke-linejoin="round"></path>
                    <path d="M611.3348,334.3154 L646.0018,364.7514" id="Stroke-716" stroke="#AAAAAA" stroke-linecap="round" stroke-linejoin="round"></path>
                    <path d="M611.3348,312.7188 C611.3348,313.9998 646.0018,348.0008 646.0018,348.0008" id="Stroke-718" stroke="#AAAAAA" stroke-linecap="round" stroke-linejoin="round"></path>
                    <path d="M611.3348,291.52 L646.0018,328.246" id="Stroke-720" stroke="#AAAAAA" stroke-linecap="round" stroke-linejoin="round"></path>
                    <path d="M611.3348,269.3687 L646.0018,309.8827" id="Stroke-722" stroke="#AAAAAA" stroke-linecap="round" stroke-linejoin="round"></path>
                    <path d="M611.3348,248 L646.0018,291.52" id="Stroke-724" stroke="#AAAAAA" stroke-linecap="round" stroke-linejoin="round"></path>
                    <path d="M611.3348,227.3047 L646.0018,270.7497" id="Stroke-726" stroke="#AAAAAA" stroke-linecap="round" stroke-linejoin="round"></path>
                    <path d="M611.3348,205.5 L646.0018,249.027" id="Stroke-728" stroke="#AAAAAA" stroke-linecap="round" stroke-linejoin="round"></path>
                    <path d="M611.3348,189.6602 L646.0018,232.0002" id="Stroke-730" stroke="#AAAAAA" stroke-linecap="round" stroke-linejoin="round"></path>
                    <path d="M611.3348,166.4585 L646.0018,212.1105" id="Stroke-732" stroke="#AAAAAA" stroke-linecap="round" stroke-linejoin="round"></path>
                    <path d="M611.3348,148.3257 L646.0018,196.4857" id="Stroke-734" stroke="#AAAAAA" stroke-linecap="round" stroke-linejoin="round"></path>
                    <polyline id="Stroke-736" stroke="#AAAAAA" stroke-linecap="round" stroke-linejoin="round" points="267.7567 509.75 268.6227 337.795 287.6677 361.649 287.8457 531.293"></polyline>
                    <path d="M275.8348,347.001 L275.0018,509.75" id="Stroke-738" stroke="#AAAAAA" stroke-linecap="round" stroke-linejoin="round"></path>
                    <path d="M282.6249,354.752 L282.6249,528.999" id="Stroke-740" stroke="#AAAAAA" stroke-linecap="round" stroke-linejoin="round"></path>
                    <path d="M268.5809,346.1357 L286.7419,364.9867" id="Stroke-742" stroke="#AAAAAA" stroke-linecap="round" stroke-linejoin="round"></path>
                    <path d="M268.5809,357.4863 C268.5219,357.6673 286.7419,374.7123 286.7419,374.7123" id="Stroke-744" stroke="#AAAAAA" stroke-linecap="round" stroke-linejoin="round"></path>
                    <path d="M268.5809,367.667 L286.7419,387.5" id="Stroke-746" stroke="#AAAAAA" stroke-linecap="round" stroke-linejoin="round"></path>
                    <path d="M268.4139,379.3027 L286.7419,399.5817" id="Stroke-748" stroke="#AAAAAA" stroke-linecap="round" stroke-linejoin="round"></path>
                    <path d="M268.3485,392.2617 L287.3775,410.6317" id="Stroke-750" stroke="#AAAAAA" stroke-linecap="round" stroke-linejoin="round"></path>
                    <path d="M268.288,404.2588 L287.378,422.0658" id="Stroke-752" stroke="#AAAAAA" stroke-linecap="round" stroke-linejoin="round"></path>
                    <path d="M268.7567,416.75 L287.7417,433.833" id="Stroke-754" stroke="#AAAAAA" stroke-linecap="round" stroke-linejoin="round"></path>
                    <path d="M268.288,428.375 L287.846,444.215" id="Stroke-756" stroke="#AAAAAA" stroke-linecap="round" stroke-linejoin="round"></path>
                    <path d="M268.1024,440.9766 L287.7424,455.1666" id="Stroke-758" stroke="#AAAAAA" stroke-linecap="round" stroke-linejoin="round"></path>
                    <path d="M268.1024,452.4297 L287.1594,465.7637" id="Stroke-760" stroke="#AAAAAA" stroke-linecap="round" stroke-linejoin="round"></path>
                    <path d="M268.1024,464.5 L287.3084,476.5" id="Stroke-762" stroke="#AAAAAA" stroke-linecap="round" stroke-linejoin="round"></path>
                    <path d="M268.1024,476.833 L287.1594,487.597" id="Stroke-764" stroke="#AAAAAA" stroke-linecap="round" stroke-linejoin="round"></path>
                    <path d="M267.9344,489.333 L287.8454,499.534" id="Stroke-766" stroke="#AAAAAA" stroke-linecap="round" stroke-linejoin="round"></path>
                    <path d="M268.1024,500.667 L287.8454,510.725" id="Stroke-768" stroke="#AAAAAA" stroke-linecap="round" stroke-linejoin="round"></path>
                    <path d="M275.0018,516.5566 L287.1588,521.6816" id="Stroke-770" stroke="#AAAAAA" stroke-linecap="round" stroke-linejoin="round"></path>
                    <path d="M179.6678,566.2275 L179.6678,607.1665" id="Stroke-772" stroke="#B9B9B9" stroke-linecap="round" stroke-linejoin="round"></path>
                    <path d="M187.3348,566.0234 L187.3348,607.1674" id="Stroke-774" stroke="#B9B9B9" stroke-linecap="round" stroke-linejoin="round"></path>
                    <path d="M195.0848,566.0234 L195.0848,607.1674" id="Stroke-776" stroke="#B9B9B9" stroke-linecap="round" stroke-linejoin="round"></path>
                    <path d="M202.3348,566.0234 L202.3348,607.1674" id="Stroke-778" stroke="#B9B9B9" stroke-linecap="round" stroke-linejoin="round"></path>
                    <path d="M209.0018,566.0234 L209.0018,607.1674" id="Stroke-780" stroke="#B9B9B9" stroke-linecap="round" stroke-linejoin="round"></path>
                    <path d="M349.4696,551.7275 C349.8346,553.2495 349.4696,607.1665 349.4696,607.1665" id="Stroke-782" stroke="#B9B9B9" stroke-linecap="round" stroke-linejoin="round"></path>
                    <path d="M353.8583,550.6016 L353.8583,607.1666" id="Stroke-784" stroke="#B9B9B9" stroke-linecap="round" stroke-linejoin="round"></path>
                    <path d="M358.5848,549.5664 L358.5848,607.1674" id="Stroke-786" stroke="#B9B9B9" stroke-linecap="round" stroke-linejoin="round"></path>
                    <path d="M362.5751,548.7461 L362.5751,607.1671" id="Stroke-788" stroke="#B9B9B9" stroke-linecap="round" stroke-linejoin="round"></path>
                    <path d="M367.287,547.5586 L367.287,607.1666" id="Stroke-790" stroke="#B9B9B9" stroke-linecap="round" stroke-linejoin="round"></path>
                    <path d="M313.5448,558.667 L313.5448,607.167" id="Stroke-792" stroke="#B9B9B9" stroke-linecap="round" stroke-linejoin="round"></path>
                    <path d="M318.9305,557.7578 L318.9305,607.1668" id="Stroke-794" stroke="#B9B9B9" stroke-linecap="round" stroke-linejoin="round"></path>
                    <path d="M323.8348,557.0977 L323.8348,607.1667" id="Stroke-796" stroke="#B9B9B9" stroke-linecap="round" stroke-linejoin="round"></path>
                    <path d="M328.2841,556.0635 L328.2841,607.1675" id="Stroke-798" stroke="#B9B9B9" stroke-linecap="round" stroke-linejoin="round"></path>
                    <path d="M332.455,555.2637 L332.455,607.1667" id="Stroke-800" stroke="#B9B9B9" stroke-linecap="round" stroke-linejoin="round"></path>
                    <path d="M282.6249,563.7256 L282.6249,607.1666" id="Stroke-802" stroke="#B9B9B9" stroke-linecap="round" stroke-linejoin="round"></path>
                    <path d="M287.8456,562.2256 L287.8456,607.1666" id="Stroke-804" stroke="#B9B9B9" stroke-linecap="round" stroke-linejoin="round"></path>
                    <path d="M293.8368,562.2256 L293.8368,607.1666" id="Stroke-806" stroke="#B9B9B9" stroke-linecap="round" stroke-linejoin="round"></path>
                    <path d="M233.3348,565.1621 L234.0318,607.1671" id="Stroke-808" stroke="#B9B9B9" stroke-linecap="round" stroke-linejoin="round"></path>
                    <path d="M239.1678,565.5 L239.1678,607.167" id="Stroke-810" stroke="#B9B9B9" stroke-linecap="round" stroke-linejoin="round"></path>
                    <path d="M244.3348,565.1621 L244.3348,607.1671" id="Stroke-812" stroke="#B9B9B9" stroke-linecap="round" stroke-linejoin="round"></path>
                    <path d="M249.3348,565.1621 L249.3348,607.1671" id="Stroke-814" stroke="#B9B9B9" stroke-linecap="round" stroke-linejoin="round"></path>
                    <path d="M254.662,564.4355 L254.662,607.1665" id="Stroke-816" stroke="#B9B9B9" stroke-linecap="round" stroke-linejoin="round"></path>
                    <path d="M260.3348,564.4355 L260.3348,607.1665" id="Stroke-818" stroke="#B9B9B9" stroke-linecap="round" stroke-linejoin="round"></path>
                    <path d="M264.5018,564.4355 L264.5018,607.1665" id="Stroke-820" stroke="#B9B9B9" stroke-linecap="round" stroke-linejoin="round"></path>
                    <path d="M228.4393,520.3662 L228.6963,523.9212 L229.0953,523.8912 C229.6453,523.8522 230.0503,523.1932 229.9953,522.4172 L229.9413,521.6692 C229.8843,520.8922 229.3893,520.2982 228.8393,520.3382 L228.4393,520.3662 Z M228.7023,524.0132 L228.8973,526.7262 L229.2973,526.6982 L229.3043,526.7912 L227.7053,526.9062 L227.6983,526.8132 L228.0973,526.7842 L227.6393,520.4242 L227.2403,520.4532 L227.2333,520.3592 L228.8333,520.2442 C229.9133,520.1662 230.6813,520.7882 230.7413,521.6112 L230.7943,522.3592 C230.8543,523.1822 230.1823,523.9072 229.1023,523.9852 L228.7023,524.0132 Z" id="Fill-822" fill="#AAAAAA"></path>
                    <path d="M232.5653,523.4775 L231.9613,523.9715 C231.7863,524.1105 231.7533,524.3935 231.8183,524.9555 L231.8893,525.5745 C231.9103,525.7585 232.0143,526.0275 232.3033,525.9945 C232.5293,525.9675 232.7973,525.7505 232.7923,525.4625 L232.5653,523.4775 Z M231.9153,521.7955 C232.5113,521.7275 233.1263,521.9805 233.2183,522.7925 L233.5153,525.3885 C233.5343,525.5475 233.6293,525.6645 233.7293,525.6525 C233.8283,525.6415 233.8953,525.5055 233.8773,525.3475 L233.9673,525.3365 C234.0023,525.6385 233.7673,525.9115 233.4423,525.9485 C233.1803,525.9785 232.9463,525.8525 232.8403,525.6525 C232.7803,525.8375 232.6203,526.0415 232.2503,526.0845 C231.7253,526.1445 231.1853,525.8245 231.1283,525.3225 L231.0953,525.0375 C231.0423,524.5685 231.6453,524.0835 231.6453,524.0835 L232.5513,523.3605 L232.4583,522.5405 C232.4013,522.0455 232.2223,521.8455 231.9243,521.8795 C231.6993,521.9065 231.4463,522.0195 231.3303,522.2025 C231.5913,522.1715 231.7923,522.3195 231.8153,522.5285 C231.8393,522.7385 231.6773,522.9255 231.4523,522.9525 C231.2263,522.9775 231.0263,522.8315 231.0033,522.6225 C230.9583,522.2285 231.3733,521.8585 231.9153,521.7955 L231.9153,521.7955 Z" id="Fill-824" fill="#AAAAAA"></path>
                    <path d="M235.9403,521.5078 C235.8613,521.4558 235.7513,521.4438 235.6333,521.4568 C235.3463,521.4888 235.1203,521.7378 235.1583,522.0688 L235.5643,525.6198 L235.9233,525.5788 L235.9323,525.6638 L234.4973,525.8278 L234.4873,525.7428 L234.8453,525.7018 L234.3813,521.6428 L234.0233,521.6838 L234.0133,521.5988 L235.0903,521.4758 L235.1203,521.7378 C235.2003,521.5578 235.3733,521.4018 235.7053,521.3628 C236.0283,521.3258 236.3663,521.4928 236.4053,521.8398 C236.4293,522.0508 236.2693,522.2408 236.0443,522.2668 C235.8203,522.2918 235.6223,522.1438 235.5973,521.9328 C235.5743,521.7298 235.7253,521.5398 235.9403,521.5078" id="Fill-826" fill="#AAAAAA"></path>
                    <path d="M238.704,525.0352 L239.028,524.9982 L237.988,522.6552 L237.831,522.9102 L238.082,525.1052 L238.433,525.0652 L238.442,525.1492 L237.039,525.3092 L237.029,525.2262 L237.38,525.1862 L236.731,519.5092 L236.38,519.5492 L236.371,519.4652 L237.423,519.3452 L237.814,522.7672 L238.922,520.9502 L238.632,520.9822 L238.623,520.8992 L239.456,520.8042 L239.465,520.8882 C239.141,520.9252 238.969,521.0462 238.863,521.2192 L238.414,521.9552 L239.722,524.9192 L240.063,524.8792 L240.073,524.9632 L238.714,525.1182 L238.704,525.0352 Z" id="Fill-828" fill="#AAAAAA"></path>
                    <path d="M242.4862,522.8252 L243.6852,522.6882 L242.7622,520.0402 L242.4862,522.8252 Z M241.8152,524.6772 C242.0912,524.6452 242.2412,524.4992 242.2612,524.2972 L242.8222,518.5002 L242.9602,518.4842 L244.9722,524.3162 L245.3172,524.2762 L245.3272,524.3622 L243.9292,524.5222 L243.9202,524.4362 L244.2642,524.3972 L243.7122,522.7712 L242.4792,522.9122 L242.3162,524.6202 L242.6432,524.5822 L242.6532,524.6682 L241.8252,524.7622 L241.8152,524.6772 Z" id="Fill-830" fill="#AAAAAA"></path>
                    <path d="M244.8387,520.0039 L246.2877,519.8389 L246.2977,519.9229 L245.9267,519.9659 L246.9867,522.7399 L247.3577,519.8019 L247.0047,519.8429 L246.9947,519.7579 L247.8727,519.6569 L247.8827,519.7419 C247.5927,519.7749 247.4417,519.8959 247.4127,520.1209 L246.9027,524.0949 L246.7587,524.1109 L245.2107,520.0479 L244.8487,520.0889 L244.8387,520.0039 Z" id="Fill-832" fill="#AAAAAA"></path>
                    <path d="M249.0555,521.5664 L249.9535,521.4634 L249.8525,520.5764 C249.7665,519.8314 249.5795,519.5464 249.2835,519.5814 C248.9875,519.6154 248.8685,519.9334 248.9535,520.6784 L249.0555,521.5664 Z M249.2225,523.0244 C249.2785,523.5184 249.5455,523.7084 249.8425,523.6744 C250.2015,523.6334 250.7125,523.3294 250.6205,522.5254 L250.5985,522.3324 L250.6885,522.3224 L250.7095,522.5144 C250.7955,523.2684 250.4085,523.6944 249.7615,523.7684 C249.1695,523.8364 248.5565,523.5664 248.4655,522.7714 L248.2365,520.7614 C248.1455,519.9654 248.6815,519.5654 249.2735,519.4974 C249.8665,519.4294 250.4795,519.6994 250.5705,520.4944 L250.6815,521.4654 L249.0655,521.6504 L249.2225,523.0244 Z" id="Fill-834" fill="#AAAAAA"></path>
                    <path d="M252.4579,523.375 L252.8139,523.334 L252.8239,523.418 L251.3959,523.581 L251.3869,523.497 L251.7439,523.456 L251.2799,519.396 L250.9229,519.437 L250.9129,519.353 L251.9839,519.23 L252.0289,519.628 C252.1239,519.429 252.4169,519.138 252.7819,519.097 C253.3539,519.031 253.6219,519.317 253.6869,519.893 L254.0639,523.191 L254.4209,523.15 L254.4309,523.234 L253.0029,523.397 L252.9929,523.313 L253.3509,523.272 L252.9299,519.594 C252.9039,519.374 252.7979,519.231 252.6199,519.252 C252.3699,519.28 252.0299,519.637 252.0639,519.933 L252.4579,523.375 Z" id="Fill-836" fill="#AAAAAA"></path>
                    <path d="M256.3827,518.7705 L256.0267,518.8115 L256.0167,518.7265 L257.0867,518.6045 L257.5607,522.7495 L257.9177,522.7085 L257.9277,522.7915 L256.8567,522.9155 L256.8117,522.5175 C256.7167,522.7165 256.4237,523.0065 256.0587,523.0485 C255.4867,523.1145 255.2187,522.8285 255.1537,522.2525 L254.7767,518.9545 L254.4187,518.9955 L254.4097,518.9105 L255.4807,518.7885 L255.9107,522.5515 C255.9367,522.7715 256.0427,522.9135 256.2207,522.8935 C256.4707,522.8645 256.8107,522.5085 256.7767,522.2125 L256.3827,518.7705 Z" id="Fill-838" fill="#AAAAAA"></path>
                    <path d="M265.6708,516.2187 L265.3138,516.2227 L265.3128,516.1337 L266.1878,516.1247 L266.1888,516.2127 C265.9028,516.2167 265.7348,516.3507 265.6918,516.5547 L264.5058,522.4287 L264.3628,522.4307 L262.9198,516.2487 L262.5628,516.2527 L262.5618,516.1637 L264.0178,516.1487 L264.0188,516.2377 L263.6518,516.2407 L264.7308,520.8597 L265.6708,516.2187 Z" id="Fill-840" fill="#AAAAAA"></path>
                    <polygon id="Fill-842" fill="#AAAAAA" points="268.1219 516.1035 268.1229 516.1905 267.7609 516.1945 267.8249 522.0735 268.1869 522.0695 268.1879 522.1565 266.7369 522.1715 266.7359 522.0845 267.0999 522.0815 267.0349 516.2025 266.6719 516.2065 266.6709 516.1195"></polygon>
                    <path d="M269.9569,516.1699 L269.9929,519.4549 L270.3619,519.4509 C270.8709,519.4459 271.2809,518.8609 271.2719,518.1449 L271.2659,517.4519 C271.2579,516.7349 270.8349,516.1599 270.3259,516.1659 L269.9569,516.1699 Z M269.9939,519.5419 L270.0209,522.0489 L270.3909,522.0449 L270.3919,522.1319 L268.9129,522.1489 L268.9119,522.0619 L269.2819,522.0579 L269.2179,516.1779 L268.8479,516.1819 L268.8469,516.0959 L270.3249,516.0789 C271.3239,516.0679 271.9959,516.6839 272.0049,517.4439 L272.0129,518.1359 C272.0199,518.8969 271.3619,519.5259 270.3629,519.5379 L269.9939,519.5419 Z" id="Fill-844" fill="#AAAAAA"></path>
                </g>
            </g>
        </g>
    </g>
</svg>