<svg width="681" height="618" xmlns="http://www.w3.org/2000/svg"><g fill="none" fill-rule="evenodd" opacity=".6"><g stroke="#B9B9B9" stroke-linecap="round" stroke-linejoin="round"><path d="M347.335 542V155l10.75-18.75h5.25l8.333-23.583h4.334l3.333-4.667V95.667l16.333-30.334 6.334 3V72l21.333 17.333 60-88.833 70 55v29l11 9.5 7-7.5 12.5 13.5v18l9 8.5 10.5-9.5 42.667 52v334.581"/><path d="M498.835 593v-70.5l182-21"/></g><path d="M373.002 546.596v61.07m27.666.001V535l-20-3-7.666 3m-94.151 19.153c5.097-.536 12.177-1.14 17.15-1.82 61-8.333 77-17.333 77-17.333m-143.407 22.598c11.62-.462 27.535-1.246 41.76-2.521m-98.686 2.59c4.594 0 23.06.911 48.925.334m-5.423 7.661c-29.14.495-43.502.338-43.502.338m91.834-1.387c-10.926.371-25.375.646-34.916.85m42.769-1.237c-.889.052-.775.1-1.659.143m30.656-3.342c-7.285 1.024-14.699 1.902-22.018 2.54m57.143-8.6c-8.42 1.694-17.79 3.42-27.543 4.937m64.068-13.308s-11.616 3.117-28.751 6.762m69.74 54.309l.167-509.766 3.177-8.567 4.333 5.333 1.667-5.333m130-4.834v431.187m39.5-389.187v384.25m10.5-393.75v392.437" stroke="#B9B9B9" stroke-linecap="round" stroke-linejoin="round"/><path stroke="#B9B9B9" stroke-linecap="round" stroke-linejoin="round" d="M376.002 112.666L380.668 532v75.667M358.085 136.25v404.089M125.335 280.5l-13 9V562m57-334.5l29.542 28.824L228.002 284l.319 233.164"/><path stroke="#B9B9B9" stroke-linecap="round" stroke-linejoin="round" d="M199.877 257.324l.125-7.99-32.334-33.584v-4.5l-5.083-4.25-11 8.25 2.25 378.25m-2.25-370.667l-3.583 3v-5.166l-6.667 3.833v6.667l-4.667 3.666v-5.5l-11.333 9v342.168m40.833-22.834l3-340.25m3.5 340.25h-10.333v50m10.333 0V566m55.653-263l9.514 7.5-3.757 3 .32 190.77"/><path stroke="#B9B9B9" stroke-linecap="round" stroke-linejoin="round" d="M234.078 320l10.257-6.5 15 15 4.5-2.5 26.5 32 .667 176.312M263.706 503.5l.129-177.5m301.5 188.438l-1-420.438M.103 564.88c25.592 0 76.221-1.44 125.232-2.88m358-561.5l-1 607.167M421.668 94.666v513M402.002 72l-1.334 463m-64.128 20.275v52.392m7.776-54.005v54.005m-128.231-41.644v41.644m8-34.292v34.292m46.5-43.059c.25.892 0 43.06 0 43.06m5.417-78.001s-8.702.614-34 3.666c-23.074 2.784-31 3.75-31 3.75V542s14.666-2.208 34.333-4.312c18.4-1.97 31.417-3.375 31.417-3.375"/><path d="M276.002 534.333s6-.333 9.666 1.667c3.667 2 20.334 14.667 20.334 14.667m-30-21s6.666-1 11.066 1.884c3.766 2.468 24.605 18.48 24.605 18.48m-87.989-31.451l.4 13.253s13.272-2.55 25.583-3.833c17.348-1.808 25.335-1.833 25.335-1.833V510.25c-5.605.25-17.214 1.92-26 3.167-14.924 2.117-25.319 5.162-25.319 5.162zm.745 13.483l.906 2.938m1.333-3.168l.609 2.892m47.391-8.381l-.333 3.155m-2.351-2.874v2.874" stroke="#B9B9B9" stroke-linecap="round" stroke-linejoin="round"/><path d="M263.706 503.5c0 3.728-5.893 8.678-14.704 9.917-8.631 1.213-14.924-3.022-14.924-6.75 0-5.084 4.915-10.302 13.439-11.679 10.235-1.655 16.189 3.657 16.189 8.512zm7.278 38.234L275.752 618m2.613-75.266l2 74.266m-52.044 1l-6.736-73.833m7 .172l3.626 72.66M301.335 561v46.667m7.599-47.764l.336 47.764m199.065-17.529V536l50.5-4.687V574.5m12.5-2.702V531l54.5-7" stroke="#B9B9B9" stroke-linecap="round" stroke-linejoin="round"/><path d="M237.9 501.675c-.529-.046-.962-.414-1.28-.806.154-.164.311-.326.475-.487.27.335.61.63.98.662.26.024.515-.087.784-.334.82-.761 1.034-1.821 1.07-2.58.201-.131.405-.26.612-.385.003.885-.194 2.335-1.343 3.399-.422.39-.86.57-1.299.53zm12.06-3.442c-.309-.57-.309-.57-.444-.97-.238-.698-.412-1.545-.519-2.522.205-.028.411-.056.614-.075.187 1.56.516 2.446.71 2.853.321-.417.884-1.326 1.317-2.96.197 0 .393.005.584.012-.712 2.698-1.786 3.65-1.836 3.692a.329.329 0 0 1-.238.087.222.222 0 0 1-.188-.117zm-1.117.379c-1.943-.497-2.968-2.426-3.276-3.111.213-.064.427-.126.643-.186.327.653 1.11 1.945 2.398 2.505-.083-.491-.276-1.38-.72-2.896.213-.041.424-.077.634-.111.765 2.64.755 3.362.751 3.44a.404.404 0 0 1-.148.28.322.322 0 0 1-.282.079zm.097.679c.124.039.188.169.153.317-.284 1.214-.762 2.013-1.42 2.37-.86.465-1.698.007-2.018-.213-.664-.452-1.78-1.741-1.829-1.796-.063-.073-.077-.182-.038-.292.391-1.092.22-2.845.121-3.598.197-.078.396-.15.597-.222.102.759.27 2.497-.102 3.742.281.316 1.14 1.264 1.65 1.613.191.13.858.53 1.441.215.4-.217.726-.772.951-1.602-.693-.271-2.875-1.322-3.788-4.025.202-.071.408-.141.616-.207 1.024 2.84 3.641 3.689 3.666 3.698zm-8.91 1.824c-.115-.078-.136-.247-.048-.396.525-.898.728-2.207.807-3.124.205-.12.413-.24.623-.353-.062.906-.244 2.348-.793 3.453l1.276.889c.401-.65 1.326-2.455 1.315-5.215.196-.086.395-.168.595-.247.051 3.832-1.589 5.979-1.66 6.07-.113.143-.298.19-.418.107l-1.698-1.184zm-4.344 3.022c-.432.25-.959.265-1.432.2.09-.206.191-.412.297-.618.231.024.46.026.663-.02a10.948 10.948 0 0 1-.173-.826c.162-.254.335-.506.522-.756.082.796.314 1.588.315 1.599.045.149-.04.334-.192.42zm26.72-4.201c.035.196.941.526-.026.807-1.017.297-1.478.4-2.516.492-.35.03-1.268-.028-1.268-.028l-.646-.357c-.526.614-2.07 2.325-3.854 3.382-1.313.778-2.624 1.364-3.58 1.793-.497.223-1.05.469-1.27.61-.082.709-.383 3.892.401 6.169.017.056.033.1.05.155-.204.068-.408.134-.614.195l-.01-.03c-.925-2.692-.428-6.436-.409-6.595a.42.42 0 0 1 .094-.202c.195-.23.615-.423 1.63-.88.941-.42 2.228-.997 3.506-1.752 2.026-1.202 3.804-3.394 3.821-3.416.108-.133.277-.183.396-.117l.8.442c.714.04 2.862-.123 3.494-.668zm-16.772 9.39c.083.038.134.12.135.224 0 .029.01.728-.128 2.834a7.775 7.775 0 0 1-.255 1.558c-.205.023-.408.046-.609.063.121-.412.225-.921.263-1.526.098-1.535.122-2.321.126-2.627-.453-.22-1.934-.978-2.912-1.993-.859-.895-1.334-2.327-1.53-3.044-.622.549-1.929 1.469-3.449 1.17-.695-.138-1.184-.65-1.376-.888-.343.068-1.187.223-2.02.279.06-.215.135-.428.214-.641.978-.081 1.956-.287 1.971-.29.104-.022.2.013.252.09.006.008.481.687 1.187.828 1.73.338 3.151-1.232 3.21-1.298.081-.092.193-.141.294-.127.103.01.18.082.201.185.004.022.452 2.134 1.515 3.239 1.081 1.125 2.893 1.957 2.911 1.965zm6.9-10.311c.023.073.602 1.79-.389 3.722-1.164 2.269-2.987 2.549-3.064 2.563-.088.01-.16-.04-.213-.101-.05-.061-.063-.172-.043-.264l.608-2.826c.546-1.532 1.663-3.02 1.71-3.082a.372.372 0 0 1 .281-.157l.884-.01a.23.23 0 0 1 .225.155zm-.906 3.523a4.517 4.517 0 0 0 .376-3.043l-.532.008c-.288.405-1.07 1.566-1.477 2.708a10.918 10.918 0 0 0-.56 2.378c.494-.17 1.48-.664 2.193-2.051zm-9.146-.217l.863-1.595a.4.4 0 0 1 .24-.197.245.245 0 0 1 .25.057l1.543 1.619a.25.25 0 0 1 .064.129l.427 2.54a.396.396 0 0 1-.202.392c-.143.079-.295.049-.363-.072-.699-1.246-2.735-2.47-2.757-2.482-.119-.071-.147-.241-.065-.391zm1.147-.964l-.497.918c.386.245 1.226.816 1.918 1.515l-.192-1.143-1.229-1.29zm-1.774 1.512c.068.026 1.676.645 2.68 1.832 1.01 1.2 1.287 3.417 1.298 3.51a.391.391 0 0 1-.133.324c-.095.087-.216.119-.315.083-.064-.021-1.588-.57-2.627-1.846-.947-1.166-1.338-3.39-1.353-3.484a.38.38 0 0 1 .127-.334c.096-.09.222-.123.323-.085zm1.398 3.434c.583.717 1.35 1.192 1.864 1.457-.152-.725-.472-1.878-1.072-2.586-.56-.665-1.35-1.146-1.89-1.424.182.733.538 1.867 1.098 2.553zm-4.805-1.41c-.664.123-1.206 0-1.609-.361-.677-.611-.962-1.736-1.084-2.663.163-.204.33-.408.506-.608 1.205 1.274 2.884.542 2.954.51a.27.27 0 0 1 .271.013c.632.455 1.256.762 1.262.766a.24.24 0 0 1 .125.18l.087.575a.373.373 0 0 1-.093.293c-.244.288-1.322 1.095-2.419 1.296zm.74-2.486c-.425.158-1.626.495-2.727-.13.14.669.387 1.344.823 1.738.291.26.69.348 1.19.256.77-.141 1.551-.658 1.862-.921l-.04-.27a9.946 9.946 0 0 1-1.108-.673zm12.654-4.528c-.26-.117-.342-.396-.206-.692.175-.374.584-1.612.9-2.598.196.01.387.025.58.043-.29.907-.706 2.177-.92 2.664.054.017.172.03.374-.017.33-.08 1.401-.466 2.805-2.247.19.05.376.106.556.164-1.926 2.523-3.556 2.926-4.089 2.683zm1.454.678c1.721-1.386 2.594-2.487 3.038-3.224.173.065.345.133.511.204-.496.832-1.418 1.985-3.092 3.359.011.58-.004 2.383-.576 3.769.598-.134 1.74-.566 2.857-1.984.841-1.067.723-1.381.545-1.857-.264-.711-.39-1.464.59-3.142l.061.027c.148.072.293.146.433.222-.889 1.528-.696 2.073-.514 2.56.244.66.341 1.227-.685 2.527-1.823 2.31-3.755 2.34-3.836 2.339a.23.23 0 0 1-.216-.136.34.34 0 0 1 .03-.295c.821-1.44.702-4.023.702-4.05a.402.402 0 0 1 .152-.32zm5.212.704c.34-.363.791-1.011 1.225-1.682.125.148.247.298.356.454-.326.496-.657.973-.95 1.333.233.11 1.718.196 2.596-.13.07.179.126.362.177.547-1.853.719-3.439-.063-3.47-.11-.074-.112-.047-.288.066-.412zm-.795-.335c-.042-.034-.418-.355-.362-1.437a4.43 4.43 0 0 1 .382-1.517c.168.094.33.194.487.296a3.646 3.646 0 0 0-.266 1.119c-.02.384.024.63.074.784.26-.26.68-.693 1.111-1.2.14.124.271.252.396.383a21.228 21.228 0 0 1-1.44 1.517c-.118.11-.275.133-.382.055z" fill="#B9B9B9"/><path stroke="#B9B9B9" stroke-linecap="round" stroke-linejoin="round" d="M169.035 232.502l7.758 7.498v12l-7.89-6.495m.132 4.497l7.758 5.498v12l-8.009-5.75m.251 3.75l7.758 5.498v12l-7.89-6.495m0 5.095l8.322 5.898v13l-8.057-5.998m-.265 4.6l8.322 5.898v13l-8.625-5.998m.455 4.1l8.322 5.898v12l-8.625-5.998m.303 3.649l8.322 5.898v12.267l-8.625-5.267m-.224 3.956l8.322 4.999v13.167l-8.625-5.267m.303 3.251l8.322 5v13.166l-8.625-5.266m.303 3.519l8.322 4.998v13.167l-8.625-5.266m.303 4.031l8.322 5v11.875l-8.625-3.975m-.557 3.65l9.625 4.575v12.125l-9.98-4.372m-.001 4.39l10.216 4.107V447.5l-10.352-4.25m.492 5.688l9.625 3.813v11.125l-9.98-3.611m.355 3.61l9.625 3.813v11.125l-9.98-3.611m.355 6.173l9.625 3.813v11.125l-9.98-3.611m-.001 4.601l10.438 4.135v11.125l-11.162-3.313m.305 5.157l10.438 3.176v11.167L167 527m-.107 4.313l10.536 2-.07 12.244-10.712-1.573"/><path stroke="#B9B9B9" stroke-linejoin="round" d="M195.502 265l-12-10v-5.998l12 11zm0 17.044l-12-10v-11.998l12 11zm0 16.334l-12-10V276.38l12 11zm14.648-3.916l-10-8v-11.998l10 9zm-.148 16.034l-10-8v-11.998l10 9zm13.795-4.701l-9-7v-9.998l9 8zm0 14.204l-9-7v-9.998l9 8zm-28.295-6.938l-12-8.553v-11.461l12 9.536zm14.5 11.575l-10-7.642v-10.461l10 7.597zm13.795 9.078l-9-6.687v-9.55l9 7.642zm-28.295-5.154l-12-8.551v-11.462l12 9.536zm14.5 11.576l-10-7.642v-10.461l10 7.597zm13.795 9.078l-9-6.687v-9.55l9 7.642zm-28.295-5.654l-12-8.551v-11.462l12 9.535zm14.5 11.576l-10-7.642v-10.461l10 7.597zm13.795 9.078l-9-6.687v-9.55l9 7.642zm-28.295-4.064l-12-8.554v-11.46l12 9.535zm14.5 10.575l-10-7.642V352.62l10 7.598zm13.795 9.078l-9-6.687v-9.55l9 7.64zm-28.295-2.987l-12-8.553v-11.46l12 8.535zm14.5 8.576l-10-6.643v-9.461l10 6.598zm13.795 9.078l-9-6.687v-9.55l9 6.64zm-28.712-2.124l-12-8.553v-11.461l12 8.536zm14.5 7.574l-10-6.642v-9.461l10 6.598zm14.795 9.079l-9-6.687v-9.55l9 6.641zm-29.295-1.235l-12-7.553V388.75l12 7.536zm14.5 7.575l-10-6.643v-9.461l10 6.598zm14.795 8.078l-9-5.687v-9.55l9 5.641zm-29.295-.487l-12-6.552v-11.461l12 7.535zm14.5 7.575l-10-5.642v-10.461l10 6.597zm14.795 7.078l-9-4.687v-9.55l9 5.642zm-29.295 1.597l-12-6.552v-11.461l12 6.536zm14.5 6.576l-10-5.642v-10.461l10 5.597zm14.795 6.078l-9-4.687v-9.55l9 4.641zm-29.295 2.68l-12-5.552V436.5l12 6.535zm14.5 5.575l-10-4.642v-10.461l10 4.597zm14.795 7.078l-9-4.687v-9.55l9 3.642zm-29.295 3.681l-12-5.553v-11.461l12 5.536zm14.5 4.575l-10-3.643v-10.461l10 3.598zm14.795 5.078l-9-3.687v-9.55l9 3.641zm-29.295 5.562l-12-5.553v-11.462l12 5.536zm14.5 4.575l-10-3.643v-10.461l10 3.598zm14.795 5.078l-9-3.688v-9.55l9 3.642zm-29.443 6.359l-12-4.552v-11.46l12 4.534zm15.5 3.575l-10-2.642v-10.46l10 2.596zm.148 14.53l-10-2.642v-10.461l10 2.597zm.25 15.237l-10.397-2.009v-10.461l10.397 2.234zm.167 15.028l-11-1.642v-11.282l11 1.598zm13.23-40.717l-9-2.687-.247-7.007 9 2.642zm-29.295 6.081l-12-2.553v-11.461l12 4.536zm.148 16.379l-12-2.553v-11.462l12 2.537zm0 16.232l-12-2.552v-11.462l12 2.536zm28.459-26.275l-8.312-1.37v-9.55l9 1.641v5.976m-14.23-240.085l-10-9v-5.998l10 10zm14.795 14.205l-10-9v-5.998l10 10zm-41.712 264.5v-7.63l12 2.293V558m20.583-21.667c-.083.084 0-10.729 0-10.729l8.016 1.146m-23.682 30.848v-5.015l11.25 1.73v3.354m3.826-15.254v8.837l6.842.667m-6.842 5.681v-2.521l6.842.423"/><path d="M211.585 542s3.177-.28 9.35 1.983M162.585 207l-.25 350.667m4.254-9.502l10.84.96-.098 8.473m71.186-62.61V485.5l11.762 4.682v6.511m-11.762-25.026v9.166l10.493 5.834v-8.834zm0-12.903v9.166l10.493 5.834v-8.834zm0-12.164v9.166l10.493 5.834v-8.834zm0-12.623v9.167l10.493 5.833v-8.833zm0-12.824v9.166l10.493 5.834v-8.834zm0-12.403v9.167l10.493 5.833v-8.833zm0-12.618v9.166l10.493 5.834v-8.834zm0-13.212v9.167l10.493 5.834v-8.834zm0-12.236v9.167l10.493 5.833v-8.833zm0-12.698v9.167l10.493 5.833v-8.833zm0-13.865v9.167l10.493 5.833v-8.833zm0-12.485v9.167l10.493 5.833v-8.833zM116.335 562V294.462l9-5.665m-9 14.257c0 .696 8-4.676 8-4.676m-7.5 17.429c0 .696 8-4.676 8-4.676m-8.25 20.176c0 .695 8-4.676 8-4.676m-7.5 17.429c0 .695 8-4.677 8-4.677m-8.5 19.113c0 .695 8-4.677 8-4.677m-7.5 19.43c0 .695 8-4.677 8-4.677m-8.25 19.39c0 .696 8-4.676 8-4.676m-8.5 19.112c0 .696 8-4.676 8-4.676m-7.5 19.429c0 .696 8-4.676 8-4.676m-8 18.03l8-3.505m-8 17.715l8-2.965m-8 16.772l8-3.505m-8 17.715l8-2.965m-8 17.428l8-3.505m-8 17.715l8-2.965m-8 17.369l8-2.181m-8 15.122l8-1.5m-8 15.163h8m-8.5 15.185h8.5" stroke="#B9B9B9" stroke-linecap="round" stroke-linejoin="round"/><path d="M136.335 242.251l15.25-11.584m0 4.833c-1.083.167-16.083 11.667-16.083 11.667l-.834 338.666" stroke="#B9B9B9" stroke-linecap="round"/><path d="M143.127 241.404l1 346.429M135.46 263.76L151.586 252m-15.689 28.129l16.125-11.76m-16.176 26.622l16.124-11.759m-15.687 28.128l16.124-11.758m-16.561 27.092l16.124-11.759m-15.687 28.128l16.124-11.758m-16.343 28.129l16.124-10.76m-16.686 27.129l17.124-10.76m-17.124 26.827l16.687-8.584m-16.687 24.922l16.687-8.583m-16.406 24.922l16.687-8.583m-17.442 23.42l17.557-5.407m-17.236 21.657l17.556-5.407m-17.556 21.323l17.556-5.406m-17.556 22.669l17.556-5.406m-17.556 21.324l17.556-5.407m-17.556 21.324l17.556-4.407m-17.556 20.962l17.556-4.406m-17.556 20.073l17.556-3.407m-17.556 18.264l17.556-2.406m205.18-411.654c0-1 18.065-27.666 18.065-27.666m-6.097 410.333l-1.426-399.14m-10.542 397.119c1.917-.313 22.25-7.251 22.25-7.251m-22.25-12.284c1.917-.312 22.25-7.25 22.25-7.25m-22.12-13.306c1.916-.312 22.25-7.25 22.25-7.25m-21.917-13.307c1.968-.657 21.373-8.865 21.373-8.865m-21.373-10.612c1.968-.657 20.59-9.493 20.59-9.493m-20.806-9.635l20.59-12.495m-20.59-7.988l20.59-14.495m-20.59-5.83l20.59-16.495m-20.59-3.545l20.377-18.303m-20.377-1.826l20.143-19.167m-20.143 0l19.917-20.294m-19.581.857l19.352-21.482m-19.688 1.503l19.45-22.751m-19.45 1.88l19.2-24.378m-19.447 6.173l19.2-24.378m-18.953 3.829l18.378-26.5m-18.378 6.25L376.71 188.5m-18.378 5.875l17.818-27m-.148-20c-1.167.5-17.67 22.125-17.67 22.125M124.335 576.708L13.843 579.52M402.002 94l11.989 9m-11.989 9.666L413.99 122m-12.177 15.194l12.178 7.306m-11.895 16.194l11.989 9m-11.989 11.666l11.989 9.334m-12.177 15.195l12.177 7.306m-12.272 15.194l12.178 7.306m-12.178 15.194l12.178 7.306m-12.178 15.194l12.178 7.306m-12.178 15.194l12.178 7.306m-12.178 15.194l12.178 6.306m-12.178 17.339l12.178 5.466m-12.656 17.56L413.99 369m-11.988 18.005l11.989 4.416m-12.401 18.004l11.99 4.417m-12.621 20.135l13.032 2.177m-13.323 22.61l12.912 2.836m-12.912 17.567l12.912 2.333M402.002 501l11.578 2.5m-11.578 19.84l11.578 1.73m-11.578 19.841l11.578 1.73m-12.04 16.828l11.579 1.729M571.335 86.5v426.937M583.835 118l-.016 393.877M395.668 65.334l.417 468.978M244.335 313.5l-.72 182.517M453.92 57.386L470.002 33m-40.667 61.666l13.288-20.15m-11.288 533.151v-63.09l13.5-2.577v65.667m9-67.5v67.5-67.5zm17-3.833l-17 3.833 17-3.833zm0 71.333v-71.333m-39.5 2.916v-15.909l13.5-4.341v17.334zm23-5.784v-16.908l16.5-4.342v18.334zm-23-33.466v18l13.5-4.75v-17.5zm23-8.651v18l16.5-5.75v-17.5zm-23-14.848v17l13.5-4.75v-17.5zm23-9.651v18l16.5-5.75v-18.5zm-23-14.796v17l13.5-4.75v-17.5zm23-9.651v18l16.5-7.75v-18.5zm-23-13.139v17l13.5-5.75v-17.5zm23-12.652v18l16.5-7.75v-18.5zm-23-10.707v16l13.5-5.75v-17.5zm23-13.65v18l16.5-9.75v-18.5zm-23-8.6v16l13.5-6.75v-17.5zm23-16.65v18l16.5-9.75v-18.5zm-23-7.145v16l13.5-7.75v-18.5zm23-17.652v18l16.5-11.75v-18.5zm-23-5.298v16l13.5-9.75v-16.5zm23-19.652v18l16.5-11.75v-18.5zm-22.922-3.512v15l13.5-9.75v-16.5zm23-20.651v16l16.5-11.75v-18.5zm-23.078-2.45v15l13.5-10.75v-16.5zm23-22.651v18l16.5-14.75v-17.5zm-23-.619v16l13.5-12.75v-16.5zm23-23.651v18l16.5-16.75v-18.5zm-23-.227v16l13.5-12.75v-16.5zm0-23.247v16l13.5-13.75V206zm0-21.64v14l13.5-14.75v-16.5zm-.105-23.805v15l13.5-15.75v-16.5zm0-23.847v16l13.5-16.75v-16.5zm0-23.222v16l13.5-16.75v-16.5zm0-24.43v16l13.5-16.75v-16.5zm23.105 114.539v18l16.5-16.75v-18.5zm0-25.415v18l16.5-17.75v-18.5zm0-23.93v17l16.5-18.75v-18.5zm-.053-26.028v17l16.5-18.75v-18.5zm-.572-24.513v17l16.5-18.75v-18.5zm.572-24.473v17l16.5-20.75v-18.5zm-.572-23v17l16.5-23.75v-18.5z" stroke="#B9B9B9" stroke-linecap="round" stroke-linejoin="round"/><path stroke="#AAA" stroke-linecap="round" stroke-linejoin="round" d="M498.835 529.125h-9.833v-19.687l16.333 1.715v10.41m8-2.282v-7.065l14 1.221V518m7.5 0v-4.562l12.833 2.249m-58.666-33.311v19.874l16.333 2.25v-19.401zm23 3.723v18.4l15.333 2.376V488zm22.833 3.498v17.93l12.833 1.91v-17.5zm-45.5-32.877v19.874l16.333 2.25v-19.401zm23 3.722v18.401l15.333 2.375v-18.875zm22.833 3.498v17.932l12.834 1.91v-17.5zm-46.166-34.282v19.874l16.333 2.25v-19.4zm23 4.722v18.402l15.333 2.375v-17.875zm22.833 4.499v16.93l12.833 1.91v-16.5zm-45.833-34.971v19.874l16.333 2.25v-19.4zm23 4.722v18.402l15.333 3.375v-17.875zm22.833 6.499v15.93l12.833 1.91v-14.5zm-45.833-38.239v19.874l16.333 3.25v-19.4zm23 5.723v18.4l15.333 4.375v-17.875zm22.833 7.497v15.932l12.833 2.91v-15.5zm-45.833-40.08v19.874l16.333 4.25v-19.4zm23 6.723v18.4l15.333 4.376v-17.875zm22.833 8.498v15.931l12.833 2.91v-15.5zm-45.833-42.498v19.874l16.333 4.25v-17.4zm23 8.724v18.4l15.333 5.375v-17.875zm22.833 9.497v15.932l12.833 3.909v-15.5zm-45.833-44.384v19.875l16.333 5.25v-18.401zm23 9.723v18.401l15.333 5.375v-17.875zm22.833 10.498v15.931l12.833 3.91v-15.5zm-45.833-46.942v19.875l16.333 5.25v-18.402zm23 10.723v18.4l15.333 5.376v-17.875zm22.833 11.498v15.93l12.833 3.91v-15.5zm-45.833-47.942v19.874l16.333 5.25V250.87zm23 10.722v18.402l15.333 6.375v-17.875zm22.833 11.498V282.3l12.833 5.91v-15.5zm-45.833-48.706v19.875l16.333 5.25v-18.402zm23 11.723v18.4l15.333 6.376v-17.875zm22.833 12.498v15.93l12.833 5.91v-15.5zm-45.833-51.72v19.875l16.333 6.25v-18.4zm23 12.724v18.4l15.333 7.376v-17.875zm22.833 13.497v15.931l12.833 6.91v-15.5zm-45.833-52.835v19.875l16.333 6.25v-18.401zm23 13.724v18.4l15.333 7.375v-17.875zm22.833 14.497v15.931l12.833 6.91v-15.5zm-45.833-55.043v20.875l16.333 6.25v-17.401zm23 14.723v19.402l15.333 7.375v-17.875zm22.833 14.498v16.931l12.833 6.91v-15.5zm-45.833-56.228v20.873l16.333 9.25v-20.4zm23 15.722v19.401l15.333 8.375v-18.875zm22.833 15.498v16.93l12.833 8.91v-17.5zm-45.833-57.804v20.875l16.333 9.25V92.859zm23 16.723v19.4l15.333 8.376V108.76zm22.833 17.498v16.93l12.833 8.91v-17.5zm-45.408-59.902V78.33l16.333 9.25V67.178zm23 16.723V93.58l15.333 9.375V84.08zm22.833 17.498v16.931l12.833 8.91v-16.5zm-46.258-61.405v20.876l16.333 10.25V40.995zm23 16.724v19.4l15.333 11.376V58.896zm22.833 19.498v15.93l12.833 8.91v-15.5zm-22.408-36.222v10.563L527.76 53.5v-9.834zm-23.425-17.184V22.5l16.545 12.816v-9.834zm44.758 35.92v9.562l14.333 12.667v-9.833zm77.575 458.52V133.708c0 3.292 34.667 47.652 34.667 47.652m-14-17.412V505.5m8-330.889v328.89"/><path stroke="#AAA" stroke-linecap="round" stroke-linejoin="round" d="M611.335 503.5l10 3.128V149.451m-10 332.925l34.667 13.374m-34.667-34.347l34.667 15.44m-34.667-37.964l34.667 19.84m-34.667-38.233l34.667 19.841m-34.667-39.967l34.667 19.841m-34.667-44.67l34.667 27.841m-34.667-48.12l34.667 29.753m-34.667-50.19l34.667 30.436m-34.667-52.032c0 1.28 34.667 35.282 34.667 35.282m-34.667-56.481l34.667 36.726m-34.667-58.877l34.667 40.514M611.335 248.5l34.667 43.52m-34.667-64.215l34.667 43.445M611.335 206l34.667 43.527m-34.667-59.367l34.667 42.34m-34.667-65.542l34.667 45.653m-34.667-63.785l34.667 48.16M267.757 510.25l.866-171.955 19.045 23.854.178 169.644m-12.011-184.292l-.833 162.749m7.623-154.998v174.247M268.58 346.636l18.162 18.85m-18.162-7.5c-.058.181 18.162 17.226 18.162 17.226m-18.162-7.045L286.743 388m-18.329-8.197l18.328 20.279m-18.393-7.32l19.029 18.37m-19.09-6.373l19.09 17.807m-18.621-5.316l18.985 17.083m-19.454-5.458l19.558 15.84m-19.744-3.238l19.64 14.19m-19.64-2.737l19.057 13.334M268.102 465l19.206 12m-19.206.333l19.057 10.764m-19.225 1.736l19.911 10.201m-19.743 1.133l19.743 10.058m-12.843 5.832l12.157 5.125"/><path d="M179.668 566.727v40.94m7.667-41.144v41.144m7.75-41.144v41.144m7.25-41.144v41.144m6.667-41.144v41.144m140.468-55.44c.365 1.523 0 55.44 0 55.44m4.388-56.565v56.565m4.727-57.601v57.601m3.99-58.421v58.421m4.712-59.608v59.608m-53.742-48.5v48.5m5.385-49.409v49.409m4.905-50.069v50.069m4.449-51.104v51.105m4.171-51.904v51.903m-49.83-43.441v43.44m5.221-44.94v44.94m5.991-44.94v44.94m-60.502-42.004l.697 42.005M239.168 566v41.667m5.167-42.005v42.005m5-42.005v42.005m5.327-42.731v42.73m5.673-42.73v42.73m4.167-42.73v42.73" stroke="#B9B9B9" stroke-linecap="round" stroke-linejoin="round"/><path d="M228.44 520.866l.256 3.555.4-.03c.55-.039.954-.698.9-1.474l-.055-.748c-.057-.777-.552-1.37-1.102-1.33l-.4.027zm.262 3.647l.195 2.713.4-.028.007.093-1.599.115-.007-.093.4-.029-.459-6.36-.399.03-.007-.095 1.6-.115c1.08-.078 1.848.544 1.908 1.367l.053.748c.06.823-.612 1.548-1.692 1.626l-.4.028zm3.863-.536l-.604.495c-.175.139-.208.422-.143.984l.071.618c.021.185.125.454.414.42.226-.027.494-.244.49-.532l-.228-1.985zm-.65-1.682c.596-.067 1.211.186 1.303.998l.297 2.596c.02.159.114.275.214.264.1-.012.166-.148.148-.306l.09-.01c.035.302-.2.575-.525.611a.596.596 0 0 1-.602-.295c-.06.184-.22.389-.59.432-.525.06-1.065-.26-1.122-.763l-.033-.284c-.053-.47.55-.955.55-.955l.906-.722-.093-.82c-.057-.496-.236-.696-.534-.662-.225.028-.478.14-.594.323.261-.03.462.117.485.327.024.21-.138.397-.363.423-.226.025-.426-.12-.449-.33-.045-.393.37-.763.912-.827zm4.025-.287a.47.47 0 0 0-.307-.051.537.537 0 0 0-.475.612l.406 3.55.36-.04.008.085-1.435.164-.01-.085.358-.041-.464-4.06-.358.042-.01-.085 1.077-.123.03.262c.08-.18.253-.336.585-.375.323-.037.661.13.7.477.024.21-.136.4-.36.427a.394.394 0 0 1-.448-.334.395.395 0 0 1 .343-.425m2.764 3.527l.324-.037-1.04-2.343-.157.255.251 2.195.351-.04.009.084-1.403.16-.01-.083.351-.04-.649-5.677-.351.04-.009-.084 1.052-.12.391 3.422 1.108-1.817-.29.032-.009-.083.833-.095.009.084c-.324.037-.496.158-.602.331l-.449.736 1.308 2.964.341-.04.01.084-1.359.155-.01-.083zm3.782-2.21l1.2-.137-.924-2.648-.276 2.785zm-.67 1.852c.275-.032.425-.178.445-.38l.561-5.797.138-.016 2.012 5.832.345-.04.01.086-1.398.16-.009-.086.344-.039-.552-1.626-1.233.141-.163 1.708.327-.038.01.086-.828.094-.01-.085zm3.023-4.673l1.449-.165.01.084-.371.043 1.06 2.774.37-2.938-.352.04-.01-.084.878-.101.01.085c-.29.033-.441.154-.47.379l-.51 3.974-.144.016-1.548-4.063-.362.04-.01-.084zm4.216 1.562l.898-.103-.1-.887c-.087-.745-.274-1.03-.57-.995-.295.034-.414.352-.33 1.097l.102.888zm.167 1.458c.056.494.323.684.62.65.36-.04.87-.345.778-1.149l-.022-.193.09-.01.022.192c.085.754-.302 1.18-.948 1.254-.593.068-1.206-.202-1.297-.997l-.228-2.01c-.091-.796.445-1.196 1.037-1.264.593-.068 1.206.202 1.297.997l.11.971-1.616.185.157 1.374zm3.236.351l.356-.041.01.084-1.428.163-.01-.084.358-.041-.464-4.06-.357.041-.01-.084 1.07-.123.046.398c.095-.199.388-.49.753-.531.572-.066.84.22.905.796l.377 3.298.357-.041.01.084-1.428.163-.01-.084.358-.041-.421-3.678c-.026-.22-.132-.363-.31-.342-.25.028-.59.385-.556.681l.394 3.442zm3.925-4.605l-.356.042-.01-.086 1.07-.121.474 4.144.357-.04.01.083-1.071.123-.045-.397c-.095.198-.388.488-.753.53-.572.067-.84-.22-.905-.795l-.377-3.298-.358.04-.01-.085 1.072-.121.43 3.763c.026.22.132.361.31.341.25-.029.59-.385.556-.68l-.394-3.442zm9.287-2.551l-.356.004-.001-.09.875-.008v.088c-.285.004-.453.138-.496.342l-1.186 5.874-.143.002-1.443-6.182-.357.004-.001-.09 1.456-.014v.089l-.366.003 1.079 4.619.94-4.641zm2.452-.115v.087l-.361.003.064 5.88.362-.005v.088l-1.45.014-.001-.087.364-.002-.065-5.88-.363.005-.001-.087zm1.835.066l.036 3.285.369-.004c.509-.005.919-.59.91-1.306l-.006-.693c-.008-.717-.431-1.292-.94-1.286l-.37.004zm.037 3.372l.027 2.507.37-.004v.087l-1.478.017-.001-.087.37-.004-.064-5.88-.37.004-.001-.086 1.478-.017c.999-.011 1.67.605 1.68 1.365l.008.692c.007.76-.651 1.39-1.65 1.402l-.37.004z" fill="#AAA"/></g></svg>